<svg id="svg" version="1.1" xmlns="http://www.w3.org/2000/svg" xmlns:xlink="http://www.w3.org/1999/xlink" width="400" height="200" viewBox="0, 0, 400,200"><g id="svgg"><path id="path0" d="M190.776 71.717 C 190.763 71.817,190.758 71.951,190.764 72.012 C 190.770 72.074,190.700 72.456,190.609 72.861 C 190.517 73.266,190.515 73.552,190.604 73.498 C 190.811 73.370,191.078 71.811,190.920 71.653 C 190.854 71.587,190.789 71.616,190.776 71.717 M196.615 71.882 C 196.280 72.286,196.485 72.353,198.784 72.589 C 201.201 72.837,202.739 72.860,202.869 72.650 C 202.921 72.567,202.543 72.526,202.031 72.558 C 200.385 72.659,198.691 72.342,198.759 71.945 C 198.835 71.495,196.981 71.441,196.615 71.882 M221.733 71.733 C 221.133 72.334,221.877 72.880,222.835 72.542 C 223.713 72.233,223.694 72.254,223.404 71.905 C 223.151 71.601,221.986 71.481,221.733 71.733 M234.065 71.920 C 233.843 72.499,235.605 73.094,236.065 72.596 C 236.247 72.399,236.242 72.374,236.045 72.485 C 235.586 72.745,234.600 72.403,234.600 71.984 C 234.600 71.519,234.235 71.475,234.065 71.920 M205.200 72.705 C 205.200 73.050,206.106 73.460,206.584 73.331 C 206.772 73.281,206.710 73.237,206.431 73.223 C 206.143 73.209,205.922 73.046,205.858 72.800 C 205.736 72.334,205.200 72.256,205.200 72.705 M237.613 72.746 C 237.599 73.243,238.474 73.606,238.830 73.250 C 238.964 73.116,238.860 73.082,238.517 73.148 C 238.115 73.225,237.963 73.143,237.815 72.773 C 237.626 72.302,237.625 72.302,237.613 72.746 M208.436 73.450 C 208.481 73.767,208.648 73.911,209.000 73.937 C 209.289 73.958,209.352 73.931,209.150 73.872 C 208.957 73.816,208.800 73.597,208.800 73.385 C 208.800 73.173,208.704 73.000,208.586 73.000 C 208.468 73.000,208.401 73.203,208.436 73.450 M239.267 73.400 C 239.293 73.798,239.413 73.905,239.852 73.924 C 240.333 73.946,240.341 73.938,239.915 73.862 C 239.613 73.809,239.388 73.608,239.330 73.338 C 239.250 72.973,239.240 72.983,239.267 73.400 M221.616 73.636 C 221.624 73.891,221.677 73.987,221.732 73.850 C 221.788 73.713,221.953 73.600,222.100 73.600 C 222.247 73.600,222.418 73.713,222.480 73.850 C 222.542 73.987,222.571 73.920,222.544 73.700 C 222.470 73.088,221.595 73.028,221.616 73.636 M195.300 73.632 C 192.726 73.886,192.591 74.072,193.503 76.100 C 193.652 76.430,194.144 77.600,194.598 78.700 C 195.287 80.370,199.023 88.205,199.605 89.200 C 199.701 89.365,199.963 89.862,200.185 90.303 C 200.944 91.808,201.790 93.000,202.100 93.000 C 202.649 93.000,206.008 86.726,206.811 84.200 C 206.898 83.925,207.163 83.205,207.398 82.600 C 208.299 80.284,208.892 77.664,208.703 76.836 C 208.123 74.302,202.389 72.931,195.300 73.632 M210.503 73.879 C 210.298 74.342,210.869 74.842,211.369 74.638 C 211.642 74.527,211.623 74.492,211.262 74.440 C 210.997 74.401,210.794 74.203,210.747 73.938 C 210.675 73.527,210.660 73.523,210.503 73.879 M190.400 74.200 C 190.400 74.310,190.528 74.400,190.683 74.400 C 190.839 74.400,191.012 74.513,191.068 74.650 C 191.123 74.788,191.176 74.698,191.184 74.450 C 191.196 74.128,191.086 74.000,190.800 74.000 C 190.580 74.000,190.400 74.090,190.400 74.200 M204.450 74.370 C 204.825 74.745,201.766 78.823,198.766 81.950 C 197.596 83.170,197.064 83.457,196.913 82.950 C 196.792 82.544,196.614 82.120,196.431 81.800 C 196.208 81.411,195.731 80.356,195.209 79.100 C 194.981 78.550,194.661 77.845,194.497 77.534 C 194.334 77.222,194.200 76.840,194.200 76.683 C 194.200 76.527,194.020 76.063,193.800 75.652 C 193.167 74.470,193.252 74.236,194.350 74.133 C 196.245 73.956,204.224 74.144,204.450 74.370 M212.038 74.748 C 212.074 74.939,212.284 75.114,212.502 75.136 C 212.793 75.166,212.809 75.150,212.561 75.076 C 212.366 75.018,212.269 74.853,212.332 74.687 C 212.393 74.529,212.337 74.400,212.207 74.400 C 212.077 74.400,212.001 74.556,212.038 74.748 M213.236 75.450 C 213.279 75.755,213.446 75.909,213.753 75.927 C 214.147 75.950,214.152 75.941,213.794 75.862 C 213.493 75.795,213.415 75.666,213.505 75.385 C 213.576 75.159,213.533 75.000,213.400 75.000 C 213.275 75.000,213.201 75.203,213.236 75.450 M241.283 75.271 C 241.226 75.420,241.208 76.118,241.242 76.821 L 241.305 78.100 241.403 76.550 C 241.500 74.998,241.478 74.763,241.283 75.271 M222.738 75.330 C 222.978 75.382,223.221 75.577,223.276 75.762 C 223.349 76.005,223.366 75.988,223.336 75.700 C 223.309 75.428,223.136 75.289,222.798 75.267 C 222.381 75.240,222.371 75.250,222.738 75.330 M191.341 75.740 C 191.583 75.787,191.839 76.006,191.909 76.228 C 191.979 76.449,192.081 76.586,192.134 76.532 C 192.367 76.300,191.756 75.602,191.343 75.627 L 190.900 75.654 191.341 75.740 M215.227 76.727 C 215.211 76.988,215.406 77.289,215.729 77.500 C 216.415 77.950,218.000 79.536,218.000 79.773 C 218.000 79.874,218.135 80.009,218.301 80.073 C 218.557 80.171,218.553 80.115,218.278 79.694 C 218.100 79.422,217.874 79.200,217.777 79.200 C 217.680 79.200,217.600 79.020,217.600 78.800 C 217.600 78.578,217.467 78.400,217.300 78.400 C 217.135 78.400,217.000 78.265,217.000 78.100 C 217.000 77.935,216.830 77.800,216.621 77.800 C 216.413 77.800,216.191 77.665,216.128 77.500 C 216.064 77.335,215.881 77.200,215.720 77.200 C 215.559 77.200,215.389 76.998,215.341 76.750 C 215.258 76.317,215.253 76.316,215.227 76.727 M223.079 77.116 C 223.145 77.290,223.200 77.470,223.200 77.516 C 223.200 77.735,223.770 77.566,223.865 77.320 C 224.001 76.964,223.838 76.800,223.345 76.800 C 223.074 76.800,222.994 76.895,223.079 77.116 M192.000 77.384 C 192.314 77.474,192.488 77.661,192.469 77.885 C 192.447 78.133,192.501 78.179,192.645 78.035 C 193.001 77.679,192.654 77.199,192.056 77.220 L 191.500 77.240 192.000 77.384 M192.507 78.589 C 192.431 78.712,192.558 78.800,192.812 78.800 C 193.158 78.800,193.224 78.887,193.135 79.229 C 193.049 79.557,193.078 79.602,193.257 79.423 C 193.424 79.256,193.431 79.093,193.281 78.856 C 193.015 78.435,192.675 78.318,192.507 78.589 M224.000 78.572 C 224.346 78.678,224.495 78.862,224.483 79.169 C 224.472 79.482,224.529 79.551,224.679 79.401 C 224.992 79.088,224.562 78.509,223.980 78.460 C 223.500 78.419,223.500 78.419,224.000 78.572 M240.807 79.787 C 240.693 80.000,240.606 80.292,240.613 80.437 C 240.620 80.582,240.707 80.498,240.806 80.250 C 240.906 80.002,241.125 79.800,241.294 79.800 C 241.462 79.800,241.600 79.710,241.600 79.600 C 241.600 79.249,241.022 79.385,240.807 79.787 M193.000 80.028 C 193.000 80.122,193.173 80.200,193.385 80.200 C 193.597 80.200,193.812 80.358,193.862 80.550 C 193.935 80.827,193.958 80.811,193.977 80.473 C 193.993 80.168,193.858 80.019,193.500 79.951 C 193.225 79.898,193.000 79.933,193.000 80.028 M224.400 80.000 C 224.400 80.110,224.580 80.200,224.800 80.200 C 225.020 80.200,225.200 80.305,225.200 80.433 C 225.200 80.562,225.258 80.609,225.329 80.538 C 225.507 80.360,225.012 79.800,224.676 79.800 C 224.524 79.800,224.400 79.890,224.400 80.000 M219.600 81.385 C 219.600 81.613,219.684 81.800,219.786 81.800 C 219.888 81.800,220.001 82.002,220.036 82.250 C 220.077 82.537,220.245 82.707,220.500 82.720 C 220.815 82.735,220.825 82.721,220.545 82.655 C 220.271 82.590,220.202 82.403,220.245 81.840 C 220.287 81.276,220.220 81.093,219.950 81.040 C 219.707 80.992,219.600 81.098,219.600 81.385 M193.702 81.403 C 193.771 81.515,193.917 81.551,194.027 81.483 C 194.137 81.415,194.278 81.556,194.341 81.797 C 194.425 82.116,194.499 82.164,194.616 81.974 C 194.705 81.831,194.681 81.598,194.564 81.457 C 194.313 81.155,193.518 81.105,193.702 81.403 M225.077 81.847 C 225.106 82.419,225.713 82.555,225.852 82.021 C 225.974 81.554,225.860 81.400,225.394 81.400 C 225.169 81.400,225.062 81.551,225.077 81.847 M240.208 81.890 C 240.075 82.050,240.009 82.343,240.060 82.540 C 240.134 82.823,240.159 82.803,240.177 82.450 C 240.193 82.137,240.325 82.000,240.612 82.000 C 240.838 82.000,240.968 81.910,240.900 81.800 C 240.727 81.520,240.490 81.551,240.208 81.890 M221.091 83.724 C 221.260 84.631,221.522 85.005,221.974 84.987 C 222.191 84.979,222.146 84.913,221.841 84.790 C 221.461 84.638,221.392 84.480,221.441 83.874 C 221.480 83.388,221.407 83.110,221.223 83.045 C 221.003 82.968,220.976 83.108,221.091 83.724 M226.000 83.174 C 226.402 83.297,226.495 83.448,226.472 83.946 C 226.453 84.389,226.547 84.592,226.805 84.659 C 227.004 84.711,227.206 84.967,227.256 85.227 C 227.337 85.657,227.348 85.649,227.373 85.144 C 227.390 84.784,227.276 84.536,227.050 84.444 C 226.826 84.352,226.700 84.083,226.700 83.700 C 226.700 83.175,226.625 83.095,226.100 83.061 C 225.537 83.024,225.531 83.031,226.000 83.174 M195.000 84.180 C 195.000 84.294,195.144 84.332,195.320 84.265 C 195.496 84.197,195.728 84.267,195.835 84.421 C 195.998 84.653,196.017 84.650,195.950 84.400 C 195.858 84.060,195.000 83.861,195.000 84.180 M222.023 85.529 C 222.010 85.764,222.135 86.009,222.300 86.072 C 222.465 86.136,222.600 86.100,222.600 85.994 C 222.600 85.887,222.517 85.800,222.415 85.800 C 222.313 85.800,222.188 85.642,222.138 85.450 C 222.066 85.174,222.042 85.191,222.023 85.529 M238.875 85.493 C 238.813 85.655,238.809 85.902,238.865 86.043 C 238.930 86.205,238.974 86.170,238.984 85.950 C 238.993 85.758,239.135 85.600,239.300 85.600 C 239.465 85.600,239.600 85.510,239.600 85.400 C 239.600 85.088,239.001 85.165,238.875 85.493 M195.600 85.700 C 195.600 85.865,195.758 86.001,195.950 86.003 C 196.249 86.006,196.256 86.034,196.000 86.200 C 195.740 86.368,195.743 86.394,196.029 86.397 C 196.381 86.400,196.674 85.882,196.489 85.582 C 196.304 85.283,195.600 85.376,195.600 85.700 M227.338 85.930 C 227.578 85.982,227.815 86.200,227.864 86.415 C 227.933 86.719,227.947 86.705,227.927 86.353 C 227.907 86.020,227.768 85.891,227.400 85.867 C 226.984 85.840,226.973 85.850,227.338 85.930 M222.867 86.798 C 222.889 87.136,223.028 87.309,223.300 87.336 C 223.588 87.366,223.605 87.349,223.362 87.276 C 223.177 87.221,222.982 86.978,222.930 86.738 C 222.850 86.371,222.840 86.381,222.867 86.798 M196.400 87.000 C 196.400 87.110,196.580 87.200,196.800 87.200 C 197.020 87.200,197.200 87.305,197.200 87.433 C 197.200 87.562,197.258 87.609,197.329 87.538 C 197.507 87.360,197.012 86.800,196.676 86.800 C 196.524 86.800,196.400 86.890,196.400 87.000 M238.223 87.073 C 238.040 87.293,238.092 87.327,238.496 87.250 C 238.771 87.197,238.946 87.075,238.886 86.977 C 238.729 86.723,238.483 86.758,238.223 87.073 M228.000 87.383 C 228.346 87.482,228.482 87.646,228.442 87.913 C 228.394 88.226,228.421 88.244,228.580 88.007 C 228.841 87.619,228.487 87.194,227.926 87.220 C 227.548 87.238,227.557 87.256,228.000 87.383 M224.200 88.100 C 224.200 88.438,223.688 88.511,223.532 88.195 C 223.476 88.082,223.453 88.105,223.481 88.245 C 223.573 88.708,224.400 88.680,224.400 88.214 C 224.400 87.986,224.355 87.800,224.300 87.800 C 224.245 87.800,224.200 87.935,224.200 88.100 M197.133 88.133 C 196.882 88.385,197.000 88.553,197.494 88.648 C 197.766 88.700,197.940 88.665,197.882 88.571 C 197.824 88.477,197.641 88.400,197.476 88.400 C 197.311 88.400,197.232 88.310,197.300 88.200 C 197.440 87.974,197.335 87.932,197.133 88.133 M237.440 88.640 C 237.308 88.772,237.200 88.969,237.200 89.078 C 237.200 89.187,237.313 89.132,237.450 88.955 C 237.588 88.778,237.880 88.592,238.100 88.540 C 238.491 88.448,238.491 88.446,238.090 88.423 C 237.865 88.410,237.572 88.508,237.440 88.640 M228.600 88.743 C 228.765 88.804,229.015 88.944,229.155 89.055 C 229.345 89.206,229.377 89.174,229.283 88.928 C 229.214 88.748,228.964 88.607,228.729 88.616 C 228.436 88.627,228.395 88.667,228.600 88.743 M189.900 89.607 C 188.900 90.394,185.880 92.342,184.195 93.288 C 183.422 93.722,182.048 94.445,179.700 95.653 C 179.370 95.823,178.650 96.158,178.100 96.399 C 177.550 96.639,176.830 96.959,176.500 97.110 C 176.170 97.261,175.045 97.706,174.000 98.098 C 170.947 99.244,171.177 99.084,171.319 99.972 C 171.396 100.455,171.359 100.802,171.222 100.887 C 170.918 101.075,170.941 101.409,171.250 101.296 C 171.789 101.098,172.095 101.532,171.829 102.116 C 171.561 102.704,171.673 102.921,172.300 103.032 C 172.766 103.115,173.003 104.187,172.563 104.220 C 172.418 104.231,172.525 104.302,172.800 104.378 C 173.364 104.534,173.604 105.348,173.167 105.624 C 172.972 105.748,173.015 105.795,173.326 105.797 C 173.991 105.802,174.246 106.245,173.883 106.764 C 173.600 107.167,173.607 107.200,173.964 107.200 C 174.490 107.200,174.827 107.634,174.592 108.007 C 174.312 108.448,174.360 108.600,174.779 108.600 C 175.227 108.600,175.436 109.021,175.185 109.418 C 174.909 109.854,174.964 110.000,175.406 110.000 C 175.893 110.000,176.132 110.500,175.824 110.871 C 175.560 111.189,175.727 111.400,176.242 111.400 C 176.563 111.400,176.599 111.502,176.487 112.100 C 176.369 112.729,176.400 112.800,176.800 112.800 C 177.200 112.800,177.231 112.871,177.113 113.500 C 177.002 114.095,177.037 114.200,177.351 114.200 C 177.874 114.200,178.200 114.591,178.200 115.219 C 178.200 115.515,178.335 115.809,178.500 115.872 C 178.863 116.011,178.901 116.926,178.550 117.068 C 178.413 117.123,178.558 117.176,178.873 117.184 C 179.393 117.199,179.437 117.255,179.357 117.800 C 179.298 118.202,179.354 118.400,179.528 118.400 C 179.977 118.400,180.240 119.132,179.909 119.462 C 179.580 119.792,179.701 120.000,180.222 120.000 C 180.681 120.000,180.908 120.372,180.623 120.657 C 180.264 121.016,180.366 121.367,180.850 121.441 C 181.288 121.508,181.301 121.571,181.052 122.450 C 180.983 122.696,181.067 122.800,181.337 122.800 C 181.844 122.800,182.200 123.178,182.200 123.716 C 182.200 123.955,182.335 124.263,182.500 124.400 C 182.864 124.702,182.896 125.528,182.550 125.668 C 182.413 125.723,182.548 125.776,182.850 125.784 C 183.435 125.801,183.717 126.970,183.150 127.024 C 183.013 127.037,183.170 127.105,183.500 127.175 C 184.187 127.321,184.408 127.978,183.910 128.392 C 183.406 128.810,183.543 128.926,184.600 128.974 C 185.490 129.015,185.600 128.975,185.600 128.610 C 185.600 128.384,185.680 128.200,185.777 128.200 C 185.874 128.200,186.000 128.020,186.058 127.800 C 186.122 127.555,186.331 127.400,186.597 127.400 C 186.973 127.400,187.015 127.321,186.904 126.817 C 186.798 126.336,186.851 126.211,187.207 126.098 C 187.534 125.994,187.617 125.842,187.546 125.476 C 187.495 125.209,187.532 124.942,187.627 124.883 C 187.722 124.825,187.800 124.599,187.800 124.382 C 187.800 124.165,187.925 123.940,188.078 123.881 C 188.230 123.822,188.408 123.508,188.474 123.182 C 188.539 122.857,188.751 122.525,188.946 122.445 C 189.151 122.361,189.300 122.090,189.300 121.802 C 189.300 121.410,189.428 121.276,189.900 121.176 C 190.230 121.105,190.382 121.037,190.237 121.024 C 189.758 120.981,190.040 119.908,190.550 119.836 C 190.928 119.782,190.966 119.711,190.790 119.382 C 190.535 118.904,190.697 118.600,191.207 118.600 C 191.526 118.600,191.570 118.500,191.470 118.000 C 191.364 117.468,191.404 117.400,191.825 117.400 C 192.252 117.400,192.302 117.309,192.319 116.496 C 192.333 115.864,192.468 115.453,192.769 115.133 C 193.006 114.881,193.200 114.534,193.200 114.362 C 193.200 114.190,193.330 113.941,193.488 113.810 C 193.646 113.679,193.804 113.377,193.838 113.140 C 193.872 112.904,194.080 112.618,194.300 112.505 C 194.539 112.383,194.700 112.098,194.700 111.800 C 194.700 111.434,194.820 111.283,195.150 111.236 C 195.532 111.182,195.567 111.113,195.386 110.773 C 195.124 110.284,195.454 109.800,196.049 109.800 C 196.380 109.800,196.407 109.749,196.202 109.503 C 195.870 109.103,196.091 108.600,196.598 108.600 C 196.930 108.600,196.985 108.510,196.888 108.122 C 196.822 107.859,196.865 107.584,196.984 107.510 C 197.103 107.437,197.200 107.193,197.200 106.969 C 197.200 106.732,197.365 106.519,197.598 106.459 C 197.817 106.401,197.943 106.270,197.879 106.166 C 197.649 105.794,198.021 104.982,198.506 104.798 C 199.200 104.534,199.235 103.261,198.550 103.164 C 198.029 103.090,197.815 102.164,198.210 101.688 C 198.408 101.449,198.355 101.400,197.898 101.400 C 197.387 101.400,197.355 101.353,197.455 100.739 C 197.543 100.197,197.485 100.045,197.131 99.889 C 196.894 99.785,196.610 99.421,196.500 99.080 C 196.390 98.740,196.180 98.316,196.033 98.140 C 195.887 97.964,195.799 97.657,195.838 97.460 C 195.878 97.262,195.728 96.948,195.505 96.763 C 195.160 96.476,195.137 96.366,195.350 96.016 C 195.685 95.466,195.669 95.400,195.194 95.400 C 194.713 95.400,194.451 94.869,194.773 94.547 C 195.114 94.206,195.049 94.035,194.550 93.964 C 194.098 93.899,194.027 93.613,194.299 92.950 C 194.415 92.669,194.339 92.600,193.912 92.600 C 193.414 92.600,193.390 92.557,193.513 91.900 C 193.630 91.278,193.597 91.200,193.218 91.200 C 192.939 91.200,192.717 91.010,192.574 90.650 C 192.455 90.348,192.274 89.965,192.173 89.800 C 192.071 89.635,191.936 89.343,191.871 89.150 C 191.684 88.594,190.980 88.758,189.900 89.607 M224.161 89.362 C 224.024 89.849,224.358 90.129,224.843 89.935 C 225.010 89.868,224.982 89.826,224.764 89.816 C 224.575 89.807,224.398 89.602,224.360 89.350 L 224.292 88.900 224.161 89.362 M198.000 89.972 C 198.346 90.078,198.495 90.262,198.483 90.569 C 198.472 90.882,198.529 90.951,198.679 90.801 C 198.992 90.488,198.562 89.909,197.980 89.860 C 197.500 89.819,197.500 89.819,198.000 89.972 M236.840 90.040 C 236.556 90.324,236.527 90.732,236.781 90.888 C 236.881 90.950,236.916 90.821,236.859 90.602 C 236.784 90.315,236.887 90.151,237.227 90.015 C 237.502 89.905,237.570 89.820,237.390 89.813 C 237.220 89.806,236.972 89.908,236.840 90.040 M229.338 90.130 C 229.578 90.182,229.821 90.377,229.876 90.562 C 229.949 90.805,229.966 90.788,229.936 90.500 C 229.909 90.228,229.736 90.089,229.398 90.067 C 228.981 90.040,228.971 90.050,229.338 90.130 M224.867 90.798 C 224.899 91.274,225.600 91.679,225.600 91.221 C 225.600 91.106,225.472 91.062,225.316 91.122 C 225.133 91.192,224.997 91.065,224.933 90.765 C 224.840 90.325,224.836 90.327,224.867 90.798 M198.738 91.330 C 198.978 91.382,199.221 91.577,199.276 91.762 C 199.349 92.005,199.366 91.988,199.336 91.700 C 199.309 91.428,199.136 91.289,198.798 91.267 C 198.381 91.240,198.371 91.250,198.738 91.330 M229.900 91.400 C 229.832 91.510,229.917 91.600,230.088 91.600 C 230.260 91.600,230.401 91.758,230.403 91.950 C 230.406 92.243,230.436 92.252,230.592 92.007 C 230.709 91.821,230.699 91.619,230.564 91.457 C 230.308 91.149,230.068 91.128,229.900 91.400 M236.133 91.333 C 235.943 91.524,235.968 92.157,236.171 92.282 C 236.265 92.340,236.301 92.173,236.251 91.910 C 236.179 91.533,236.258 91.414,236.630 91.344 C 237.044 91.265,237.050 91.251,236.683 91.227 C 236.454 91.212,236.207 91.260,236.133 91.333 M225.467 92.200 C 225.491 92.568,225.620 92.707,225.953 92.727 C 226.305 92.747,226.319 92.733,226.015 92.664 C 225.800 92.615,225.582 92.378,225.530 92.138 C 225.450 91.773,225.440 91.784,225.467 92.200 M199.338 92.730 C 199.578 92.782,199.821 92.977,199.876 93.162 C 199.949 93.405,199.966 93.388,199.936 93.100 C 199.909 92.828,199.736 92.689,199.398 92.667 C 198.981 92.640,198.971 92.650,199.338 92.730 M230.769 92.744 C 231.129 92.812,231.213 92.929,231.130 93.245 C 231.053 93.540,231.084 93.596,231.238 93.442 C 231.570 93.110,231.266 92.597,230.756 92.627 L 230.300 92.654 230.769 92.744 M235.317 92.928 C 235.222 93.176,235.254 93.206,235.445 93.050 C 235.585 92.936,235.880 92.799,236.100 92.745 C 236.416 92.667,236.388 92.642,235.971 92.623 C 235.650 92.609,235.393 92.729,235.317 92.928 M226.067 93.600 C 226.091 93.968,226.220 94.107,226.553 94.127 C 226.905 94.147,226.919 94.133,226.615 94.064 C 226.400 94.015,226.182 93.778,226.130 93.538 C 226.050 93.173,226.040 93.184,226.067 93.600 M234.679 94.150 C 234.620 94.343,234.480 94.668,234.369 94.874 C 234.235 95.121,234.234 95.314,234.366 95.446 C 234.717 95.797,234.977 95.414,234.863 94.713 C 234.767 94.117,234.811 94.023,235.227 93.944 L 235.700 93.854 235.244 93.827 C 234.967 93.811,234.745 93.938,234.679 94.150 M199.938 94.140 C 200.178 94.186,200.416 94.377,200.465 94.562 C 200.528 94.802,200.560 94.769,200.577 94.450 C 200.596 94.081,200.501 94.005,200.050 94.027 C 199.597 94.050,199.577 94.070,199.938 94.140 M226.614 94.734 C 226.584 95.238,226.863 95.599,227.271 95.586 C 227.673 95.573,227.676 95.562,227.315 95.421 C 227.103 95.338,226.862 95.097,226.779 94.885 C 226.696 94.673,226.622 94.605,226.614 94.734 M231.722 94.915 C 231.653 95.095,231.742 95.200,231.966 95.200 C 232.161 95.200,232.428 95.308,232.560 95.440 C 232.692 95.572,232.800 95.633,232.800 95.576 C 232.800 95.246,231.824 94.648,231.722 94.915 M200.669 95.541 C 200.916 95.605,201.004 95.762,200.937 96.019 C 200.882 96.229,200.919 96.350,201.019 96.288 C 201.410 96.046,201.209 95.400,200.750 95.423 C 200.383 95.442,200.368 95.464,200.669 95.541 M227.220 96.063 C 227.183 96.731,227.557 97.174,228.047 97.043 L 228.500 96.923 228.007 96.804 C 227.710 96.733,227.460 96.490,227.377 96.193 C 227.282 95.851,227.234 95.812,227.220 96.063 M201.000 96.977 C 201.000 97.074,201.246 97.200,201.546 97.258 C 202.057 97.355,202.068 97.344,201.708 97.081 C 201.268 96.760,201.000 96.720,201.000 96.977 M228.320 97.747 C 228.033 98.034,228.219 98.600,228.600 98.600 C 228.859 98.600,229.000 98.467,229.000 98.221 C 229.000 97.842,228.543 97.523,228.320 97.747 M201.709 98.586 C 201.646 98.688,201.798 98.800,202.047 98.836 C 202.370 98.882,202.483 99.014,202.442 99.300 C 202.395 99.617,202.424 99.640,202.578 99.411 C 202.703 99.225,202.703 98.993,202.579 98.761 C 202.373 98.375,201.898 98.280,201.709 98.586 M228.733 99.485 C 228.575 99.897,229.146 100.334,229.448 100.032 C 229.624 99.856,229.575 99.800,229.246 99.800 C 228.943 99.800,228.847 99.710,228.928 99.500 C 228.991 99.335,228.998 99.200,228.943 99.200 C 228.888 99.200,228.794 99.328,228.733 99.485 M202.600 100.328 C 202.765 100.393,203.021 100.593,203.168 100.773 C 203.410 101.069,203.429 101.062,203.366 100.700 C 203.321 100.442,203.119 100.284,202.798 100.255 C 202.524 100.231,202.435 100.263,202.600 100.328 M229.525 101.440 C 229.579 101.528,229.759 101.600,229.924 101.600 C 230.107 101.600,230.168 101.697,230.080 101.850 C 230.001 101.988,230.013 102.030,230.107 101.944 C 230.456 101.627,230.342 101.280,229.889 101.280 C 229.634 101.280,229.470 101.352,229.525 101.440 M203.000 101.986 C 203.000 102.104,203.173 102.200,203.385 102.200 C 203.597 102.200,203.816 102.358,203.872 102.550 C 203.931 102.752,203.958 102.689,203.937 102.400 C 203.900 101.902,203.000 101.504,203.000 101.986 M230.127 103.000 C 230.284 103.640,230.320 103.673,230.691 103.531 C 231.127 103.364,231.076 103.000,230.617 103.000 C 230.406 103.000,230.182 102.888,230.119 102.750 C 230.055 102.613,230.059 102.725,230.127 103.000 M203.636 103.848 C 203.713 104.384,204.298 104.554,204.475 104.092 C 204.644 103.652,204.462 103.400,203.974 103.400 C 203.672 103.400,203.588 103.511,203.636 103.848 M230.121 104.716 C 229.944 105.178,229.954 105.184,230.498 104.931 C 231.091 104.657,231.150 104.400,230.621 104.400 C 230.413 104.400,230.188 104.542,230.121 104.716 M204.700 105.136 C 204.920 105.197,205.174 105.348,205.265 105.473 C 205.374 105.623,205.403 105.598,205.350 105.400 C 205.305 105.235,205.051 105.083,204.784 105.063 C 204.402 105.034,204.385 105.049,204.700 105.136 M205.121 106.116 C 204.953 106.555,204.944 106.543,205.494 106.648 C 205.766 106.700,205.940 106.665,205.882 106.571 C 205.824 106.477,205.650 106.400,205.494 106.400 C 205.326 106.400,205.259 106.279,205.328 106.100 C 205.391 105.935,205.398 105.800,205.343 105.800 C 205.288 105.800,205.188 105.942,205.121 106.116 M229.600 106.600 C 229.600 106.822,229.733 107.000,229.900 107.000 C 230.067 107.000,230.200 106.822,230.200 106.600 C 230.200 106.378,230.067 106.200,229.900 106.200 C 229.733 106.200,229.600 106.378,229.600 106.600 M228.800 107.788 C 228.800 108.002,228.882 108.227,228.981 108.288 C 229.081 108.350,229.118 108.229,229.063 108.019 C 228.996 107.762,229.084 107.605,229.331 107.541 C 229.632 107.464,229.617 107.442,229.250 107.423 C 228.930 107.407,228.800 107.512,228.800 107.788 M206.000 107.972 C 206.346 108.078,206.495 108.262,206.483 108.569 C 206.472 108.882,206.529 108.951,206.679 108.801 C 206.992 108.488,206.562 107.909,205.980 107.860 C 205.500 107.819,205.500 107.819,206.000 107.972 M228.075 108.893 C 228.013 109.055,228.009 109.302,228.065 109.443 C 228.122 109.585,228.176 109.504,228.184 109.264 C 228.195 108.977,228.354 108.798,228.650 108.741 L 229.100 108.654 228.644 108.627 C 228.393 108.612,228.137 108.732,228.075 108.893 M206.738 109.330 C 206.978 109.382,207.215 109.600,207.264 109.815 C 207.333 110.119,207.347 110.105,207.327 109.753 C 207.307 109.420,207.168 109.291,206.800 109.267 C 206.384 109.240,206.373 109.250,206.738 109.330 M227.402 110.097 C 227.266 110.261,227.201 110.515,227.258 110.662 C 227.314 110.809,227.189 111.036,226.980 111.166 C 226.771 111.297,226.600 111.577,226.600 111.790 C 226.600 112.002,226.514 112.230,226.409 112.295 C 226.304 112.360,226.269 112.547,226.332 112.712 C 226.544 113.264,226.997 112.634,226.864 111.971 C 226.767 111.485,226.820 111.357,227.158 111.269 C 227.453 111.192,227.560 111.015,227.535 110.645 C 227.508 110.250,227.618 110.094,228.000 109.984 C 228.444 109.856,228.452 109.838,228.074 109.820 C 227.840 109.809,227.538 109.934,227.402 110.097 M207.000 110.627 C 207.000 110.722,207.174 110.800,207.386 110.800 C 207.625 110.800,207.809 110.972,207.868 111.250 C 207.932 111.552,207.953 111.503,207.932 111.100 C 207.902 110.543,207.000 110.086,207.000 110.627 M207.600 112.011 C 207.600 112.115,207.817 112.200,208.081 112.200 C 208.475 112.200,208.545 112.282,208.468 112.650 C 208.380 113.062,208.392 113.069,208.607 112.731 C 208.751 112.504,208.770 112.290,208.656 112.176 C 208.391 111.911,207.600 111.788,207.600 112.011 M208.400 113.412 C 208.400 113.528,208.494 113.566,208.609 113.495 C 208.724 113.424,208.971 113.486,209.159 113.633 C 209.466 113.873,209.473 113.865,209.226 113.550 C 208.924 113.165,208.400 113.077,208.400 113.412 M225.533 113.533 C 225.320 113.747,225.677 114.415,225.974 114.357 C 226.452 114.265,226.487 113.669,226.021 113.548 C 225.802 113.490,225.583 113.484,225.533 113.533 M209.000 114.786 C 209.000 114.904,209.173 115.000,209.383 115.000 C 209.594 115.000,209.818 115.113,209.880 115.250 C 209.942 115.388,209.971 115.320,209.944 115.100 C 209.894 114.685,209.000 114.388,209.000 114.786 M224.838 115.148 C 224.938 115.669,225.600 115.727,225.600 115.215 C 225.600 114.928,225.472 114.800,225.185 114.800 C 224.899 114.800,224.791 114.908,224.838 115.148 M209.825 116.184 C 209.522 116.372,209.751 117.000,210.121 117.000 C 210.275 117.000,210.400 116.962,210.400 116.916 C 210.400 116.870,210.450 116.702,210.511 116.542 C 210.640 116.207,210.178 115.966,209.825 116.184 M224.133 116.133 C 224.060 116.207,224.001 116.364,224.003 116.483 C 224.005 116.630,224.054 116.627,224.153 116.473 C 224.234 116.348,224.480 116.201,224.700 116.146 C 225.087 116.050,225.086 116.046,224.683 116.023 C 224.454 116.010,224.207 116.060,224.133 116.133 M210.700 117.736 C 210.920 117.797,211.174 117.948,211.265 118.073 C 211.374 118.223,211.403 118.198,211.350 118.000 C 211.305 117.835,211.051 117.683,210.784 117.663 C 210.402 117.634,210.385 117.649,210.700 117.736 M222.806 118.693 C 222.672 118.855,222.609 119.102,222.665 119.243 C 222.730 119.405,222.774 119.370,222.784 119.150 C 222.794 118.939,222.958 118.800,223.200 118.800 C 223.420 118.800,223.600 118.710,223.600 118.600 C 223.600 118.299,223.082 118.360,222.806 118.693 M211.130 118.895 C 211.067 119.057,211.215 119.194,211.514 119.252 C 212.098 119.363,212.095 119.371,211.616 118.960 C 211.312 118.700,211.210 118.686,211.130 118.895 M212.000 120.572 C 212.346 120.678,212.495 120.862,212.483 121.169 C 212.472 121.482,212.529 121.551,212.679 121.401 C 212.992 121.088,212.562 120.509,211.980 120.460 C 211.500 120.419,211.500 120.419,212.000 120.572 M221.665 121.079 C 221.142 121.585,220.784 123.106,221.223 122.958 C 221.395 122.899,221.500 122.571,221.500 122.093 C 221.500 121.464,221.581 121.302,221.944 121.211 C 222.208 121.145,222.330 121.010,222.244 120.879 C 222.148 120.732,221.956 120.798,221.665 121.079 M212.400 122.000 C 212.400 122.110,212.580 122.200,212.800 122.200 C 213.020 122.200,213.200 122.305,213.200 122.433 C 213.200 122.562,213.258 122.609,213.329 122.538 C 213.507 122.360,213.012 121.800,212.676 121.800 C 212.524 121.800,212.400 121.890,212.400 122.000 M213.000 123.386 C 213.000 123.504,213.173 123.600,213.383 123.600 C 213.594 123.600,213.818 123.713,213.880 123.850 C 213.942 123.988,213.971 123.920,213.944 123.700 C 213.894 123.285,213.000 122.988,213.000 123.386 M220.236 123.850 C 220.271 124.097,220.435 124.300,220.600 124.300 C 220.765 124.300,220.929 124.097,220.964 123.850 C 221.013 123.504,220.929 123.400,220.600 123.400 C 220.271 123.400,220.187 123.504,220.236 123.850 M213.600 124.976 C 213.600 125.072,213.757 125.275,213.950 125.426 C 214.267 125.674,214.274 125.667,214.026 125.350 C 213.790 125.049,213.794 125.000,214.059 125.000 C 214.228 125.000,214.412 125.113,214.468 125.250 C 214.528 125.399,214.575 125.359,214.584 125.150 C 214.595 124.906,214.449 124.800,214.100 124.800 C 213.825 124.800,213.600 124.879,213.600 124.976 M219.403 125.150 C 219.406 125.430,219.441 125.444,219.583 125.221 C 219.680 125.067,219.904 124.997,220.080 125.065 C 220.256 125.132,220.400 125.100,220.400 124.994 C 220.400 124.887,220.175 124.800,219.900 124.800 C 219.556 124.800,219.401 124.909,219.403 125.150 M218.823 126.450 C 218.840 126.769,218.872 126.802,218.935 126.562 C 218.985 126.377,219.177 126.185,219.362 126.135 C 219.602 126.072,219.569 126.040,219.250 126.023 C 218.904 126.005,218.805 126.104,218.823 126.450 M214.400 126.600 C 214.400 127.075,214.905 127.137,215.079 126.684 C 215.255 126.225,215.240 126.200,214.800 126.200 C 214.533 126.200,214.400 126.333,214.400 126.600 M218.240 127.440 C 218.108 127.572,218.000 127.797,218.000 127.940 C 218.000 128.083,217.910 128.200,217.800 128.200 C 217.690 128.200,217.600 128.380,217.600 128.600 C 217.600 129.092,218.192 129.139,218.221 128.650 C 218.233 128.458,218.255 128.120,218.271 127.900 C 218.289 127.652,218.432 127.510,218.648 127.527 C 218.839 127.542,218.946 127.475,218.886 127.377 C 218.736 127.135,218.525 127.155,218.240 127.440 M215.400 127.779 C 215.740 127.874,215.939 128.106,216.026 128.509 C 216.145 129.065,216.154 129.070,216.176 128.590 C 216.205 127.974,215.865 127.593,215.310 127.620 C 214.966 127.637,214.981 127.662,215.400 127.779 " stroke="none" fill="#5c9ce2" fill-rule="evenodd"></path><path id="path1" d="M198.739 71.928 C 198.579 72.088,198.760 72.400,199.012 72.400 C 199.115 72.400,199.200 72.265,199.200 72.100 C 199.200 71.791,198.964 71.703,198.739 71.928 M170.263 72.724 C 170.153 73.012,169.624 73.042,165.519 72.994 C 159.451 72.922,159.058 72.938,159.360 73.240 C 159.492 73.372,159.600 73.721,159.600 74.016 C 159.600 74.310,159.735 74.663,159.900 74.800 C 160.065 74.937,160.200 75.342,160.200 75.701 C 160.200 76.185,160.303 76.380,160.600 76.458 C 161.053 76.576,161.167 77.499,160.750 77.668 C 160.613 77.723,160.748 77.776,161.050 77.784 C 161.704 77.803,161.843 78.639,161.250 78.984 C 160.960 79.153,161.012 79.189,161.550 79.194 C 162.108 79.199,162.200 79.270,162.200 79.700 C 162.200 79.975,162.110 80.200,162.000 80.200 C 161.890 80.200,161.800 80.300,161.800 80.421 C 161.800 80.544,161.946 80.587,162.125 80.518 C 162.799 80.259,163.207 80.964,162.686 81.486 C 162.400 81.771,162.418 81.800,162.886 81.800 C 163.440 81.800,163.693 82.972,163.150 83.024 C 163.013 83.037,163.169 83.105,163.498 83.175 C 164.207 83.327,164.396 83.908,163.868 84.309 C 163.523 84.570,163.531 84.588,164.010 84.594 C 164.615 84.601,165.000 84.936,165.000 85.454 C 165.000 85.660,165.135 85.964,165.300 86.129 C 165.723 86.551,165.690 87.547,165.250 87.662 C 165.058 87.712,165.192 87.764,165.550 87.777 C 166.128 87.797,166.200 87.864,166.200 88.377 C 166.200 88.785,166.317 88.984,166.600 89.058 C 167.049 89.175,167.179 90.186,166.750 90.220 C 166.613 90.231,166.725 90.302,167.000 90.378 C 167.630 90.552,167.826 91.514,167.262 91.660 C 167.061 91.712,167.190 91.764,167.550 91.777 C 168.250 91.802,168.473 92.447,167.960 92.960 C 167.773 93.147,167.835 93.200,168.239 93.200 C 168.865 93.200,169.098 93.674,168.677 94.094 C 168.403 94.369,168.414 94.400,168.790 94.400 C 169.059 94.400,169.289 94.597,169.434 94.950 C 169.558 95.252,169.820 95.847,170.015 96.271 C 170.377 97.055,170.343 97.581,169.929 97.624 C 169.803 97.637,169.963 97.704,170.284 97.774 C 170.980 97.924,171.131 98.240,170.709 98.663 C 170.231 99.141,170.304 100.000,170.823 100.000 C 171.166 100.000,171.229 100.095,171.152 100.494 C 171.097 100.781,171.138 100.938,171.250 100.869 C 171.357 100.803,171.387 100.401,171.319 99.972 C 171.177 99.084,170.947 99.244,174.000 98.098 C 175.045 97.706,176.170 97.261,176.500 97.110 C 176.830 96.959,177.550 96.639,178.100 96.399 C 179.143 95.943,179.299 95.866,181.879 94.522 C 184.290 93.267,184.356 93.229,186.600 91.835 C 187.755 91.117,189.211 90.140,189.835 89.665 C 191.044 88.743,191.680 88.582,191.871 89.150 C 191.936 89.343,192.071 89.635,192.173 89.800 C 192.274 89.965,192.455 90.348,192.574 90.650 C 192.783 91.179,193.600 91.458,193.600 91.000 C 193.600 90.890,193.420 90.800,193.200 90.800 C 192.857 90.800,192.724 90.619,192.761 90.200 C 192.766 90.145,192.829 89.950,192.900 89.766 C 192.996 89.520,192.908 89.414,192.565 89.366 C 192.096 89.299,191.743 88.400,192.186 88.400 C 192.839 88.400,192.344 87.678,191.660 87.632 C 190.502 87.554,190.123 87.106,190.714 86.514 C 191.000 86.229,190.973 86.200,190.414 86.200 C 189.871 86.200,189.800 86.134,189.800 85.623 C 189.800 85.215,189.683 85.016,189.400 84.942 C 189.165 84.881,189.000 84.669,189.000 84.431 C 189.000 84.207,188.910 83.968,188.799 83.900 C 188.666 83.817,188.668 83.646,188.806 83.388 C 188.987 83.051,188.947 83.000,188.501 83.000 C 188.195 83.000,187.934 82.858,187.856 82.650 C 187.784 82.458,187.592 82.201,187.430 82.079 C 187.260 81.951,187.189 81.716,187.264 81.523 C 187.355 81.284,187.248 81.132,186.896 80.999 C 186.623 80.895,186.400 80.673,186.400 80.505 C 186.400 80.337,186.265 80.200,186.100 80.200 C 185.935 80.200,185.800 80.116,185.800 80.013 C 185.800 79.766,183.629 77.600,183.382 77.600 C 183.276 77.600,183.136 77.328,183.069 76.995 C 182.973 76.517,182.869 76.415,182.574 76.508 C 182.368 76.574,182.200 76.531,182.200 76.413 C 182.200 76.296,182.133 76.211,182.050 76.224 C 181.435 76.321,181.000 76.159,181.000 75.835 C 181.000 75.542,180.880 75.487,180.400 75.557 C 179.945 75.624,179.800 75.567,179.800 75.323 C 179.800 75.110,179.626 75.000,179.287 75.000 C 178.504 75.000,178.000 74.645,178.000 74.093 C 178.000 73.822,177.910 73.600,177.800 73.600 C 177.690 73.600,177.600 73.740,177.600 73.911 C 177.600 74.154,177.412 74.209,176.750 74.161 C 175.960 74.104,175.903 74.061,175.938 73.550 C 175.969 73.090,175.895 73.000,175.488 73.000 C 175.188 73.000,175.000 73.115,175.000 73.300 C 175.000 74.060,172.405 73.602,172.347 72.832 C 172.305 72.270,170.474 72.175,170.263 72.724 M222.009 74.017 C 222.132 74.247,222.272 74.394,222.321 74.346 C 222.461 74.206,222.177 73.600,221.972 73.600 C 221.869 73.600,221.886 73.788,222.009 74.017 M194.350 74.133 C 193.252 74.236,193.167 74.470,193.800 75.652 C 194.020 76.063,194.200 76.527,194.200 76.683 C 194.200 76.840,194.334 77.222,194.497 77.534 C 194.661 77.845,194.981 78.550,195.209 79.100 C 195.731 80.356,196.208 81.411,196.431 81.800 C 196.614 82.120,196.792 82.544,196.913 82.950 C 197.064 83.457,197.596 83.170,198.766 81.950 C 201.766 78.823,204.825 74.745,204.450 74.370 C 204.224 74.144,196.245 73.956,194.350 74.133 M190.400 74.700 C 190.400 74.865,190.535 75.000,190.700 75.000 C 190.865 75.000,191.000 74.865,191.000 74.700 C 191.000 74.535,190.865 74.400,190.700 74.400 C 190.535 74.400,190.400 74.535,190.400 74.700 M212.328 74.700 C 212.249 74.904,212.338 75.000,212.606 75.000 C 212.823 75.000,213.000 74.865,213.000 74.700 C 213.000 74.535,212.875 74.400,212.721 74.400 C 212.568 74.400,212.391 74.535,212.328 74.700 M195.350 84.332 C 195.488 84.388,195.600 84.513,195.600 84.610 C 195.600 84.708,195.465 84.736,195.300 84.672 C 195.135 84.609,195.000 84.649,195.000 84.761 C 195.000 85.097,195.695 84.889,195.765 84.531 C 195.807 84.317,195.701 84.206,195.465 84.216 C 195.255 84.225,195.206 84.274,195.350 84.332 M223.950 87.738 C 223.537 87.846,223.475 88.400,223.877 88.400 C 224.029 88.400,224.200 88.220,224.258 88.000 C 224.315 87.780,224.348 87.610,224.331 87.623 C 224.314 87.636,224.143 87.688,223.950 87.738 M224.400 89.433 C 224.400 89.635,224.529 89.800,224.688 89.800 C 224.846 89.800,224.963 89.635,224.948 89.433 C 224.932 89.232,224.803 89.067,224.660 89.067 C 224.517 89.067,224.400 89.232,224.400 89.433 M193.516 91.930 C 193.311 92.464,193.389 92.600,193.900 92.600 C 194.288 92.600,194.400 92.497,194.400 92.143 C 194.400 91.611,193.703 91.443,193.516 91.930 M194.121 93.318 C 193.957 93.744,194.140 94.000,194.610 94.000 C 194.899 94.000,194.985 93.875,194.954 93.500 C 194.907 92.933,194.318 92.804,194.121 93.318 M194.717 94.640 C 194.510 95.103,194.733 95.405,195.262 95.377 C 195.581 95.360,195.608 95.329,195.362 95.265 C 195.177 95.216,194.990 94.978,194.947 94.738 C 194.881 94.359,194.850 94.346,194.717 94.640 M200.528 95.900 C 200.591 96.065,200.723 96.200,200.821 96.200 C 200.920 96.200,201.000 96.065,201.000 95.900 C 201.000 95.735,200.868 95.600,200.706 95.600 C 200.527 95.600,200.458 95.717,200.528 95.900 M195.260 96.131 C 195.183 96.334,195.282 96.586,195.517 96.781 C 195.727 96.957,195.873 97.288,195.840 97.518 C 195.808 97.747,195.920 98.051,196.090 98.192 C 196.261 98.333,196.400 98.598,196.400 98.780 C 196.400 99.243,196.965 100.000,197.311 100.000 C 197.747 100.000,197.658 99.720,197.150 99.495 C 196.697 99.295,196.633 98.999,196.900 98.348 C 197.006 98.089,196.968 98.025,196.754 98.107 C 196.299 98.281,195.929 97.707,196.186 97.226 C 196.479 96.679,196.464 96.637,195.950 96.564 C 195.665 96.523,195.510 96.371,195.528 96.150 C 195.563 95.708,195.426 95.699,195.260 96.131 M197.423 100.850 C 197.404 101.310,197.482 101.400,197.900 101.400 C 198.300 101.400,198.400 101.300,198.400 100.900 C 198.400 100.551,198.294 100.405,198.050 100.416 C 197.839 100.425,197.800 100.472,197.951 100.533 C 198.089 100.589,198.152 100.716,198.089 100.817 C 197.908 101.111,197.637 101.029,197.538 100.650 C 197.482 100.435,197.437 100.512,197.423 100.850 M171.072 101.500 C 170.912 101.918,171.130 102.400,171.480 102.400 C 171.887 102.400,172.116 101.596,171.771 101.378 C 171.379 101.130,171.203 101.160,171.072 101.500 M198.078 101.885 C 197.856 102.464,198.090 103.099,198.550 103.164 C 198.853 103.207,199.000 103.125,199.000 102.914 C 199.000 102.728,198.828 102.600,198.577 102.600 C 198.233 102.600,198.171 102.506,198.249 102.100 C 198.353 101.555,198.253 101.429,198.078 101.885 M171.600 103.003 C 171.600 103.096,171.799 103.201,172.042 103.236 C 172.310 103.275,172.542 103.497,172.631 103.800 C 172.770 104.272,172.776 104.268,172.739 103.713 C 172.703 103.169,171.600 102.482,171.600 103.003 M172.400 104.586 C 172.400 104.704,172.590 104.800,172.823 104.800 C 173.148 104.800,173.222 104.893,173.142 105.200 C 173.085 105.420,173.125 105.600,173.232 105.600 C 173.664 105.600,173.304 104.500,172.850 104.436 C 172.603 104.401,172.400 104.468,172.400 104.586 M198.456 104.804 C 198.011 104.983,197.660 105.812,197.879 106.166 C 197.943 106.270,197.817 106.401,197.598 106.459 C 197.377 106.516,197.200 106.731,197.200 106.941 C 197.200 107.150,197.098 107.422,196.973 107.547 C 196.691 107.829,196.910 108.464,197.250 108.348 C 197.393 108.300,197.500 107.929,197.500 107.482 C 197.500 106.824,197.571 106.690,197.950 106.636 C 198.320 106.583,198.364 106.507,198.200 106.201 C 197.937 105.708,198.150 105.200,198.621 105.200 C 198.830 105.200,199.000 105.065,199.000 104.900 C 199.000 104.735,198.978 104.606,198.950 104.613 C 198.923 104.620,198.700 104.706,198.456 104.804 M173.000 106.000 C 173.000 106.110,173.180 106.200,173.400 106.200 C 173.646 106.200,173.801 106.334,173.803 106.550 C 173.806 106.843,173.836 106.852,173.992 106.607 C 174.109 106.421,174.099 106.219,173.964 106.057 C 173.713 105.754,173.000 105.712,173.000 106.000 M173.616 107.650 C 173.624 107.897,173.677 107.988,173.732 107.850 C 173.885 107.473,174.400 107.550,174.403 107.950 C 174.406 108.243,174.436 108.252,174.592 108.007 C 174.825 107.637,174.491 107.200,173.976 107.200 C 173.715 107.200,173.605 107.338,173.616 107.650 M174.400 109.100 C 174.400 109.636,175.071 109.833,175.249 109.350 C 175.401 108.938,175.191 108.600,174.783 108.600 C 174.508 108.600,174.400 108.741,174.400 109.100 M196.067 108.913 C 196.001 109.086,196.049 109.329,196.173 109.453 C 196.342 109.622,196.400 109.593,196.400 109.340 C 196.400 109.153,196.535 109.000,196.700 109.000 C 196.865 109.000,197.000 108.910,197.000 108.800 C 197.000 108.475,196.198 108.572,196.067 108.913 M195.409 110.090 C 195.236 110.297,195.228 110.481,195.378 110.740 C 195.569 111.068,195.588 111.060,195.594 110.650 C 195.598 110.335,195.720 110.200,196.000 110.200 C 196.220 110.200,196.400 110.110,196.400 110.000 C 196.400 109.696,195.681 109.761,195.409 110.090 M175.000 110.500 C 175.000 110.933,175.081 111.016,175.450 110.964 C 175.745 110.922,175.900 110.763,175.900 110.500 C 175.900 110.237,175.745 110.078,175.450 110.036 C 175.081 109.984,175.000 110.067,175.000 110.500 M175.639 111.794 C 175.681 112.348,176.164 112.542,176.447 112.120 C 176.721 111.710,176.602 111.447,176.099 111.351 C 175.658 111.266,175.603 111.319,175.639 111.794 M194.675 111.493 C 194.613 111.655,194.601 111.902,194.647 112.042 C 194.694 112.182,194.545 112.390,194.316 112.503 C 194.087 112.617,193.872 112.904,193.838 113.140 C 193.804 113.377,193.646 113.679,193.488 113.810 C 193.330 113.941,193.200 114.190,193.200 114.362 C 193.200 114.534,193.027 114.860,192.816 115.087 C 192.201 115.749,192.045 117.000,192.578 117.000 C 193.032 117.000,193.162 116.442,192.793 116.073 C 192.497 115.777,192.776 115.200,193.216 115.200 C 193.525 115.200,193.569 115.095,193.470 114.600 C 193.361 114.056,193.399 114.000,193.870 114.000 C 194.338 114.000,194.372 113.951,194.206 113.515 C 194.002 112.978,194.397 112.451,194.813 112.708 C 194.977 112.810,195.004 112.672,194.905 112.224 C 194.788 111.690,194.836 111.572,195.234 111.412 L 195.700 111.225 195.244 111.213 C 194.993 111.206,194.737 111.332,194.675 111.493 M176.400 113.200 C 176.400 113.467,176.533 113.600,176.800 113.600 C 177.067 113.600,177.200 113.467,177.200 113.200 C 177.200 112.933,177.067 112.800,176.800 112.800 C 176.533 112.800,176.400 112.933,176.400 113.200 M177.000 114.400 C 177.000 114.510,177.183 114.600,177.406 114.600 C 177.887 114.600,178.149 115.131,177.827 115.453 C 177.486 115.794,177.551 115.965,178.050 116.036 C 178.371 116.082,178.495 116.229,178.484 116.550 C 178.475 116.797,178.543 117.000,178.634 117.000 C 178.930 117.000,178.810 115.991,178.500 115.872 C 178.335 115.809,178.200 115.515,178.200 115.219 C 178.200 114.922,178.092 114.572,177.960 114.440 C 177.669 114.149,177.000 114.121,177.000 114.400 M178.769 117.344 C 179.185 117.423,179.224 117.511,179.110 118.116 C 178.998 118.714,179.034 118.800,179.391 118.800 C 179.681 118.800,179.801 118.931,179.803 119.250 C 179.805 119.600,179.847 119.636,179.989 119.411 C 180.208 119.064,179.905 118.400,179.528 118.400 C 179.354 118.400,179.298 118.202,179.357 117.800 C 179.438 117.248,179.400 117.202,178.873 117.227 C 178.372 117.251,178.359 117.266,178.769 117.344 M191.436 117.850 C 191.527 118.491,192.304 118.508,192.357 117.871 C 192.388 117.489,192.299 117.400,191.884 117.400 C 191.468 117.400,191.384 117.484,191.436 117.850 M190.701 118.798 C 190.634 118.908,190.670 119.155,190.783 119.348 C 190.978 119.682,190.988 119.682,190.994 119.350 C 190.997 119.158,191.135 119.000,191.300 119.000 C 191.465 119.000,191.600 118.910,191.600 118.800 C 191.600 118.541,190.861 118.539,190.701 118.798 M179.650 120.337 C 179.650 120.759,179.676 120.773,179.897 120.471 C 180.127 120.156,180.157 120.158,180.344 120.493 C 180.479 120.733,180.590 120.777,180.684 120.626 C 180.883 120.304,180.681 120.062,180.128 119.956 C 179.733 119.881,179.650 119.947,179.650 120.337 M190.077 120.088 C 190.016 120.247,190.008 120.539,190.060 120.738 C 190.134 121.025,190.158 121.006,190.177 120.650 C 190.193 120.341,190.325 120.200,190.600 120.200 C 190.820 120.200,191.000 120.110,191.000 120.000 C 191.000 119.689,190.201 119.765,190.077 120.088 M189.272 121.500 C 189.209 121.665,189.206 121.926,189.265 122.080 C 189.329 122.247,189.215 122.402,188.985 122.462 C 188.751 122.523,188.549 122.803,188.476 123.169 C 188.410 123.502,188.230 123.822,188.078 123.881 C 187.925 123.940,187.800 124.165,187.800 124.382 C 187.800 124.599,187.714 124.830,187.609 124.895 C 187.347 125.056,187.579 125.600,187.910 125.600 C 188.312 125.600,188.465 125.220,188.195 124.894 C 187.880 124.514,188.090 124.000,188.559 124.000 C 188.860 124.000,188.914 123.883,188.841 123.388 C 188.768 122.890,188.831 122.754,189.179 122.663 C 189.497 122.580,189.594 122.419,189.554 122.039 C 189.512 121.641,189.612 121.495,190.000 121.383 L 190.500 121.240 189.944 121.220 C 189.619 121.208,189.339 121.325,189.272 121.500 M180.400 121.788 C 180.400 122.344,180.815 122.524,181.124 122.101 C 181.441 121.667,181.314 121.400,180.788 121.400 C 180.537 121.400,180.400 121.537,180.400 121.788 M181.000 123.000 C 181.000 123.110,181.183 123.200,181.406 123.200 C 181.911 123.200,182.138 123.733,181.838 124.213 C 181.649 124.517,181.683 124.584,182.056 124.637 C 182.371 124.682,182.495 124.831,182.484 125.150 C 182.475 125.397,182.543 125.600,182.634 125.600 C 182.920 125.600,182.815 124.661,182.500 124.400 C 182.335 124.263,182.200 123.955,182.200 123.716 C 182.200 123.476,182.092 123.172,181.960 123.040 C 181.669 122.749,181.000 122.721,181.000 123.000 M213.800 125.076 C 213.800 125.117,213.935 125.263,214.100 125.400 C 214.346 125.604,214.400 125.590,214.400 125.324 C 214.400 125.146,214.265 125.000,214.100 125.000 C 213.935 125.000,213.800 125.034,213.800 125.076 M219.646 125.238 C 219.769 125.608,220.200 125.670,220.200 125.317 C 220.200 125.142,220.058 125.000,219.883 125.000 C 219.709 125.000,219.602 125.107,219.646 125.238 M182.770 125.944 C 183.144 126.015,183.221 126.132,183.148 126.517 C 183.097 126.782,183.133 127.000,183.228 127.000 C 183.322 127.000,183.400 126.730,183.400 126.400 C 183.400 125.872,183.334 125.803,182.850 125.827 C 182.349 125.852,182.342 125.862,182.770 125.944 M187.021 126.183 C 186.676 126.401,186.876 127.000,187.294 127.000 C 187.487 127.000,187.600 126.816,187.600 126.500 C 187.600 125.969,187.471 125.898,187.021 126.183 M183.200 127.322 C 183.365 127.382,183.611 127.466,183.748 127.509 C 183.932 127.566,183.943 127.723,183.791 128.123 C 183.610 128.600,183.622 128.631,183.903 128.397 C 184.427 127.963,184.195 127.307,183.500 127.256 C 183.170 127.232,183.035 127.262,183.200 127.322 M186.058 127.800 C 186.000 128.020,185.874 128.200,185.777 128.200 C 185.680 128.200,185.600 128.380,185.600 128.600 C 185.600 128.820,185.686 129.000,185.791 129.000 C 186.090 129.000,187.000 128.014,187.000 127.691 C 187.000 127.241,186.179 127.336,186.058 127.800 " stroke="none" fill="#7cbbeb" fill-rule="evenodd"></path><path id="path2" d="M166.287 72.071 C 167.281 72.991,170.400 72.932,170.400 71.993 C 170.400 71.625,170.253 71.600,168.090 71.600 L 165.779 71.600 166.287 72.071 M189.600 72.614 C 189.600 73.551,189.634 73.623,190.050 73.564 C 190.828 73.453,190.931 71.600,190.159 71.600 C 189.620 71.600,189.600 71.637,189.600 72.614 M198.950 71.732 C 199.088 71.788,199.200 71.953,199.200 72.099 C 199.200 72.445,202.524 72.756,202.842 72.438 C 203.445 71.835,202.847 71.600,200.756 71.616 C 199.625 71.624,198.813 71.677,198.950 71.732 M234.667 71.918 C 234.667 72.301,235.508 72.656,236.026 72.492 C 236.822 72.239,236.469 71.600,235.533 71.600 C 234.875 71.600,234.667 71.676,234.667 71.918 M173.600 72.586 C 173.600 73.028,174.224 73.401,174.614 73.193 C 175.264 72.844,175.088 72.400,174.300 72.400 C 173.915 72.400,173.600 72.484,173.600 72.586 M205.886 72.750 C 205.967 73.313,207.600 73.372,207.600 72.811 C 207.600 72.458,207.475 72.400,206.718 72.400 C 205.992 72.400,205.844 72.462,205.886 72.750 M238.000 72.814 C 238.000 73.128,238.108 73.212,238.448 73.164 C 239.113 73.069,239.171 72.400,238.515 72.400 C 238.128 72.400,238.000 72.503,238.000 72.814 M176.800 73.400 C 176.800 73.667,176.933 73.800,177.200 73.800 C 177.467 73.800,177.600 73.667,177.600 73.400 C 177.600 73.133,177.467 73.000,177.200 73.000 C 176.933 73.000,176.800 73.133,176.800 73.400 M208.938 73.129 C 208.654 73.412,208.815 73.800,209.215 73.800 C 209.494 73.800,209.608 73.691,209.565 73.467 C 209.493 73.098,209.152 72.915,208.938 73.129 M239.540 73.126 C 239.226 73.441,239.426 73.800,239.915 73.800 C 240.296 73.800,240.412 73.710,240.362 73.452 C 240.292 73.088,239.781 72.886,239.540 73.126 M178.766 74.015 C 178.851 74.243,178.983 74.423,179.060 74.415 C 179.137 74.407,179.290 74.400,179.400 74.400 C 179.510 74.400,179.600 74.220,179.600 74.000 C 179.600 73.708,179.467 73.600,179.106 73.600 C 178.691 73.600,178.637 73.666,178.766 74.015 M210.800 74.000 C 210.800 74.267,210.933 74.400,211.200 74.400 C 211.467 74.400,211.600 74.267,211.600 74.000 C 211.600 73.733,211.467 73.600,211.200 73.600 C 210.933 73.600,210.800 73.733,210.800 74.000 M158.400 74.400 C 158.400 75.055,159.050 75.279,159.272 74.700 C 159.447 74.245,159.203 73.800,158.779 73.800 C 158.491 73.800,158.400 73.945,158.400 74.400 M181.600 75.406 C 181.600 75.623,181.735 75.800,181.900 75.800 C 182.065 75.800,182.200 75.675,182.200 75.521 C 182.200 75.368,182.065 75.191,181.900 75.128 C 181.696 75.049,181.600 75.138,181.600 75.406 M213.600 75.400 C 213.600 75.701,213.704 75.809,213.950 75.762 C 214.143 75.725,214.300 75.562,214.300 75.400 C 214.300 75.238,214.143 75.075,213.950 75.038 C 213.704 74.991,213.600 75.099,213.600 75.400 M241.540 75.126 C 241.045 75.622,241.460 78.400,242.029 78.400 C 242.385 78.400,242.412 78.268,242.358 76.752 C 242.302 75.153,242.038 74.629,241.540 75.126 M159.000 75.765 C 159.000 76.092,159.535 76.537,159.710 76.355 C 159.997 76.055,159.837 75.491,159.450 75.436 C 159.114 75.388,159.000 75.472,159.000 75.765 M222.400 75.900 C 222.400 76.459,222.885 76.589,223.079 76.082 C 223.231 75.686,223.067 75.400,222.688 75.400 C 222.514 75.400,222.400 75.598,222.400 75.900 M191.000 76.500 C 191.000 77.076,191.674 77.216,191.879 76.682 C 192.043 76.255,191.859 76.000,191.388 76.000 C 191.107 76.000,191.000 76.138,191.000 76.500 M183.434 76.734 C 183.473 76.937,183.711 77.129,183.970 77.166 C 184.330 77.218,184.420 77.150,184.366 76.866 C 184.327 76.663,184.089 76.471,183.830 76.434 C 183.470 76.382,183.380 76.450,183.434 76.734 M215.400 76.719 C 215.400 76.894,215.580 77.085,215.800 77.142 C 216.020 77.200,216.200 77.371,216.200 77.523 C 216.200 77.675,216.380 77.800,216.600 77.800 C 216.822 77.800,217.000 77.933,217.000 78.100 C 217.000 78.265,217.095 78.400,217.212 78.400 C 217.328 78.400,217.368 78.310,217.300 78.200 C 217.232 78.090,217.272 78.000,217.388 78.000 C 217.505 78.000,217.600 77.900,217.600 77.779 C 217.600 77.657,217.465 77.609,217.300 77.672 C 217.135 77.736,216.998 77.678,216.997 77.544 C 216.992 77.196,216.104 76.400,215.722 76.400 C 215.545 76.400,215.400 76.543,215.400 76.719 M159.655 77.200 C 159.673 77.440,159.828 77.600,160.043 77.600 C 160.267 77.600,160.400 77.451,160.400 77.200 C 160.400 76.938,160.267 76.800,160.012 76.800 C 159.748 76.800,159.634 76.927,159.655 77.200 M191.600 77.900 C 191.600 78.476,192.274 78.616,192.479 78.082 C 192.643 77.655,192.459 77.400,191.988 77.400 C 191.707 77.400,191.600 77.538,191.600 77.900 M217.600 78.691 C 217.600 78.837,217.735 79.009,217.900 79.072 C 218.065 79.136,218.203 79.303,218.207 79.444 C 218.230 80.332,219.600 80.977,219.600 80.100 C 219.600 79.789,219.487 79.600,219.300 79.600 C 219.135 79.600,219.000 79.465,219.000 79.300 C 219.000 79.128,218.820 79.000,218.579 79.000 C 218.316 79.000,218.195 78.903,218.257 78.741 C 218.315 78.590,218.199 78.470,217.978 78.453 C 217.770 78.438,217.600 78.545,217.600 78.691 M223.600 79.100 C 223.600 79.533,223.681 79.616,224.050 79.564 C 224.345 79.522,224.500 79.363,224.500 79.100 C 224.500 78.837,224.345 78.678,224.050 78.636 C 223.681 78.584,223.600 78.667,223.600 79.100 M192.400 79.215 C 192.400 79.727,193.062 79.669,193.162 79.148 C 193.209 78.908,193.101 78.800,192.815 78.800 C 192.528 78.800,192.400 78.928,192.400 79.215 M186.200 79.379 C 186.200 79.587,186.335 79.809,186.500 79.872 C 186.665 79.936,186.800 80.125,186.800 80.294 C 186.800 80.467,186.974 80.600,187.200 80.600 C 187.493 80.600,187.600 80.467,187.600 80.100 C 187.600 79.806,187.485 79.600,187.321 79.600 C 187.168 79.600,186.991 79.465,186.928 79.300 C 186.762 78.869,186.200 78.930,186.200 79.379 M240.901 80.198 C 240.749 80.674,240.916 81.000,241.312 81.000 C 241.499 81.000,241.600 80.789,241.600 80.400 C 241.600 79.709,241.102 79.565,240.901 80.198 M193.000 80.600 C 193.000 80.867,193.133 81.000,193.400 81.000 C 193.667 81.000,193.800 80.867,193.800 80.600 C 193.800 80.333,193.667 80.200,193.400 80.200 C 193.133 80.200,193.000 80.333,193.000 80.600 M224.400 80.600 C 224.400 81.055,224.902 81.145,225.065 80.720 C 225.190 80.392,225.043 80.200,224.667 80.200 C 224.520 80.200,224.400 80.380,224.400 80.600 M193.600 81.901 C 193.600 82.229,193.703 82.350,193.950 82.313 C 194.453 82.240,194.497 81.672,194.010 81.545 C 193.684 81.459,193.600 81.532,193.600 81.901 M188.455 82.000 C 188.438 82.220,188.509 82.400,188.612 82.400 C 188.716 82.400,188.800 82.220,188.800 82.000 C 188.800 81.780,188.729 81.600,188.643 81.600 C 188.556 81.600,188.472 81.780,188.455 82.000 M220.282 81.874 C 220.132 82.265,220.337 82.600,220.726 82.600 C 220.922 82.600,221.005 82.448,220.964 82.166 C 220.886 81.638,220.445 81.449,220.282 81.874 M240.333 82.133 C 240.035 82.432,240.210 83.000,240.600 83.000 C 240.893 83.000,241.000 82.867,241.000 82.500 C 241.000 82.029,240.637 81.830,240.333 82.133 M194.400 83.300 C 194.400 83.465,194.535 83.600,194.700 83.600 C 194.865 83.600,195.000 83.465,195.000 83.300 C 195.000 83.135,194.865 83.000,194.700 83.000 C 194.535 83.000,194.400 83.135,194.400 83.300 M225.600 83.800 C 225.600 84.337,225.665 84.419,226.050 84.364 C 226.380 84.317,226.500 84.166,226.500 83.800 C 226.500 83.434,226.380 83.283,226.050 83.236 C 225.665 83.181,225.600 83.263,225.600 83.800 M189.504 83.961 C 189.358 84.342,189.555 84.600,189.991 84.600 C 190.248 84.600,190.349 84.463,190.329 84.143 C 190.298 83.636,189.681 83.500,189.504 83.961 M221.472 83.900 C 221.281 84.400,221.538 84.779,221.988 84.661 C 222.560 84.512,222.565 83.600,221.994 83.600 C 221.770 83.600,221.536 83.735,221.472 83.900 M239.476 84.290 C 239.321 84.695,239.552 85.000,240.012 85.000 C 240.293 85.000,240.400 84.862,240.400 84.500 C 240.400 83.937,239.675 83.772,239.476 84.290 M226.400 85.085 C 226.400 85.472,226.503 85.600,226.814 85.600 C 227.128 85.600,227.212 85.492,227.164 85.152 C 227.069 84.487,226.400 84.429,226.400 85.085 M222.333 85.133 C 222.058 85.409,222.215 85.800,222.600 85.800 C 222.867 85.800,223.000 85.667,223.000 85.400 C 223.000 85.015,222.609 84.858,222.333 85.133 M163.600 85.800 C 163.600 86.263,163.690 86.400,163.993 86.400 C 164.498 86.400,164.871 85.751,164.551 85.431 C 164.090 84.970,163.600 85.161,163.600 85.800 M239.000 86.000 C 239.000 86.222,239.133 86.400,239.300 86.400 C 239.467 86.400,239.600 86.222,239.600 86.000 C 239.600 85.778,239.467 85.600,239.300 85.600 C 239.133 85.600,239.000 85.778,239.000 86.000 M227.000 86.500 C 227.000 86.867,227.107 87.000,227.400 87.000 C 227.693 87.000,227.800 86.867,227.800 86.500 C 227.800 86.133,227.693 86.000,227.400 86.000 C 227.107 86.000,227.000 86.133,227.000 86.500 M223.000 86.706 C 223.000 86.868,223.135 87.000,223.300 87.000 C 223.465 87.000,223.600 86.920,223.600 86.821 C 223.600 86.723,223.465 86.591,223.300 86.528 C 223.117 86.458,223.000 86.527,223.000 86.706 M164.400 87.085 C 164.400 87.472,164.503 87.600,164.814 87.600 C 165.128 87.600,165.212 87.492,165.164 87.152 C 165.069 86.487,164.400 86.429,164.400 87.085 M196.400 87.800 C 196.400 88.475,196.869 88.628,197.166 88.050 C 197.412 87.572,197.245 87.200,196.783 87.200 C 196.491 87.200,196.400 87.342,196.400 87.800 M238.128 87.500 C 237.953 87.955,238.197 88.400,238.621 88.400 C 238.909 88.400,239.000 88.255,239.000 87.800 C 239.000 87.145,238.350 86.921,238.128 87.500 M227.600 87.919 C 227.600 88.267,227.711 88.400,228.000 88.400 C 228.258 88.400,228.400 88.267,228.400 88.023 C 228.400 87.815,228.221 87.600,228.000 87.542 C 227.682 87.459,227.600 87.536,227.600 87.919 M165.038 88.548 C 165.138 89.069,165.800 89.127,165.800 88.615 C 165.800 88.328,165.672 88.200,165.385 88.200 C 165.099 88.200,164.991 88.308,165.038 88.548 M192.236 88.848 C 192.331 89.513,193.000 89.571,193.000 88.915 C 193.000 88.528,192.897 88.400,192.586 88.400 C 192.272 88.400,192.188 88.508,192.236 88.848 M197.000 89.100 C 197.000 89.636,197.671 89.833,197.849 89.350 C 198.001 88.938,197.791 88.600,197.383 88.600 C 197.108 88.600,197.000 88.741,197.000 89.100 M237.476 88.890 C 237.333 89.264,237.542 89.600,237.918 89.600 C 238.327 89.600,238.519 88.998,238.179 88.783 C 237.781 88.531,237.603 88.558,237.476 88.890 M228.400 89.300 C 228.400 89.465,228.535 89.600,228.700 89.600 C 228.865 89.600,229.000 89.465,229.000 89.300 C 229.000 89.135,228.865 89.000,228.700 89.000 C 228.535 89.000,228.400 89.135,228.400 89.300 M165.671 89.857 C 165.689 90.149,165.826 90.314,166.050 90.314 C 166.487 90.314,166.514 89.686,166.084 89.521 C 165.638 89.351,165.639 89.350,165.671 89.857 M192.872 89.900 C 192.712 90.317,192.949 90.850,193.250 90.751 C 193.643 90.622,193.694 89.600,193.307 89.600 C 193.131 89.600,192.936 89.735,192.872 89.900 M197.636 90.448 C 197.713 90.984,198.298 91.154,198.475 90.692 C 198.644 90.252,198.462 90.000,197.974 90.000 C 197.672 90.000,197.588 90.111,197.636 90.448 M229.038 90.548 C 229.138 91.069,229.800 91.127,229.800 90.615 C 229.800 90.328,229.672 90.200,229.385 90.200 C 229.099 90.200,228.991 90.308,229.038 90.548 M236.838 90.548 C 236.938 91.069,237.600 91.127,237.600 90.615 C 237.600 90.328,237.472 90.200,237.185 90.200 C 236.899 90.200,236.791 90.308,236.838 90.548 M225.000 90.706 C 225.000 90.868,225.135 91.000,225.300 91.000 C 225.465 91.000,225.600 90.920,225.600 90.821 C 225.600 90.723,225.465 90.591,225.300 90.528 C 225.117 90.458,225.000 90.527,225.000 90.706 M198.400 91.915 C 198.400 92.571,199.069 92.513,199.164 91.848 C 199.212 91.508,199.128 91.400,198.814 91.400 C 198.503 91.400,198.400 91.528,198.400 91.915 M229.600 91.901 C 229.600 92.229,229.703 92.350,229.950 92.313 C 230.453 92.240,230.497 91.672,230.010 91.545 C 229.684 91.459,229.600 91.532,229.600 91.901 M236.236 91.850 C 236.271 92.098,236.435 92.300,236.600 92.300 C 236.765 92.300,236.929 92.098,236.964 91.850 C 237.013 91.504,236.929 91.400,236.600 91.400 C 236.271 91.400,236.187 91.504,236.236 91.850 M225.600 92.015 C 225.600 92.293,225.709 92.408,225.931 92.365 C 226.413 92.271,226.458 91.600,225.982 91.600 C 225.729 91.600,225.600 91.740,225.600 92.015 M199.000 93.200 C 199.000 93.467,199.133 93.600,199.400 93.600 C 199.667 93.600,199.800 93.467,199.800 93.200 C 199.800 92.933,199.667 92.800,199.400 92.800 C 199.133 92.800,199.000 92.933,199.000 93.200 M230.400 93.200 C 230.400 93.501,230.504 93.609,230.750 93.562 C 230.943 93.525,231.100 93.362,231.100 93.200 C 231.100 93.038,230.943 92.875,230.750 92.838 C 230.504 92.791,230.400 92.899,230.400 93.200 M235.547 92.920 C 235.323 93.143,235.642 93.600,236.021 93.600 C 236.267 93.600,236.400 93.459,236.400 93.200 C 236.400 92.819,235.834 92.633,235.547 92.920 M226.276 93.290 C 226.134 93.662,226.341 94.000,226.712 94.000 C 226.886 94.000,227.000 93.802,227.000 93.500 C 227.000 92.950,226.466 92.796,226.276 93.290 M231.133 94.133 C 230.835 94.432,231.010 95.000,231.400 95.000 C 231.693 95.000,231.800 94.867,231.800 94.500 C 231.800 94.029,231.437 93.830,231.133 94.133 M234.933 94.133 C 234.635 94.432,234.810 95.000,235.200 95.000 C 235.493 95.000,235.600 94.867,235.600 94.500 C 235.600 94.029,235.237 93.830,234.933 94.133 M199.679 94.516 C 199.745 94.690,199.800 94.870,199.800 94.916 C 199.800 94.962,199.935 95.000,200.100 95.000 C 200.267 95.000,200.400 94.822,200.400 94.600 C 200.400 94.327,200.267 94.200,199.979 94.200 C 199.677 94.200,199.592 94.290,199.679 94.516 M226.876 94.690 C 226.734 95.062,226.941 95.400,227.312 95.400 C 227.486 95.400,227.600 95.202,227.600 94.900 C 227.600 94.350,227.066 94.196,226.876 94.690 M168.400 95.800 C 168.400 96.456,168.783 96.602,169.198 96.103 C 169.529 95.704,169.310 95.200,168.806 95.200 C 168.488 95.200,168.400 95.330,168.400 95.800 M231.600 95.800 C 231.600 96.255,231.691 96.400,231.979 96.400 C 232.187 96.400,232.411 96.540,232.477 96.712 C 232.653 97.170,234.272 97.032,234.363 96.550 C 234.417 96.263,234.282 96.200,233.610 96.200 C 232.919 96.200,232.760 96.121,232.600 95.700 C 232.314 94.949,231.600 95.020,231.600 95.800 M195.600 96.012 C 195.600 96.263,195.737 96.400,195.988 96.400 C 196.488 96.400,196.462 95.690,195.960 95.652 C 195.728 95.634,195.600 95.762,195.600 96.012 M227.472 95.900 C 227.294 96.365,227.545 96.800,227.994 96.800 C 228.312 96.800,228.400 96.670,228.400 96.200 C 228.400 95.542,227.697 95.315,227.472 95.900 M169.000 97.100 C 169.000 97.676,169.674 97.816,169.879 97.282 C 170.043 96.855,169.859 96.600,169.388 96.600 C 169.107 96.600,169.000 96.738,169.000 97.100 M196.276 97.290 C 196.134 97.662,196.341 98.000,196.712 98.000 C 196.886 98.000,197.000 97.802,197.000 97.500 C 197.000 96.950,196.466 96.796,196.276 97.290 M201.000 97.692 C 201.000 98.282,201.546 98.606,201.820 98.179 C 202.105 97.736,201.935 97.306,201.448 97.236 C 201.082 97.184,201.000 97.268,201.000 97.692 M169.600 98.500 C 169.600 98.665,169.638 98.800,169.684 98.800 C 169.730 98.800,169.910 98.855,170.084 98.921 C 170.310 99.008,170.400 98.923,170.400 98.621 C 170.400 98.333,170.273 98.200,170.000 98.200 C 169.778 98.200,169.600 98.333,169.600 98.500 M196.876 98.690 C 196.734 99.062,196.941 99.400,197.312 99.400 C 197.486 99.400,197.600 99.202,197.600 98.900 C 197.600 98.350,197.066 98.196,196.876 98.690 M201.600 99.200 C 201.600 99.467,201.733 99.600,202.000 99.600 C 202.267 99.600,202.400 99.467,202.400 99.200 C 202.400 98.933,202.267 98.800,202.000 98.800 C 201.733 98.800,201.600 98.933,201.600 99.200 M229.000 99.383 C 229.000 99.629,229.129 99.800,229.315 99.800 C 229.501 99.800,229.603 99.664,229.565 99.467 C 229.467 98.965,229.000 98.896,229.000 99.383 M170.400 100.615 C 170.400 100.901,170.508 101.009,170.748 100.962 C 171.269 100.862,171.327 100.200,170.815 100.200 C 170.528 100.200,170.400 100.328,170.400 100.615 M202.400 100.985 C 202.400 101.473,202.485 101.600,202.813 101.600 C 203.146 101.600,203.214 101.493,203.163 101.052 C 203.069 100.234,202.400 100.176,202.400 100.985 M229.535 100.680 C 229.400 101.032,229.561 101.200,230.033 101.200 C 230.267 101.200,230.400 101.055,230.400 100.800 C 230.400 100.334,229.705 100.238,229.535 100.680 M198.455 102.000 C 198.438 102.220,198.509 102.400,198.612 102.400 C 198.716 102.400,198.800 102.220,198.800 102.000 C 198.800 101.780,198.729 101.600,198.643 101.600 C 198.556 101.600,198.472 101.780,198.455 102.000 M230.230 101.943 C 229.993 102.386,230.279 103.000,230.723 103.000 C 230.942 103.000,231.008 102.826,230.963 102.365 C 230.890 101.629,230.514 101.412,230.230 101.943 M203.000 102.600 C 203.000 102.867,203.133 103.000,203.400 103.000 C 203.667 103.000,203.800 102.867,203.800 102.600 C 203.800 102.333,203.667 102.200,203.400 102.200 C 203.133 102.200,203.000 102.333,203.000 102.600 M171.643 103.860 C 171.689 104.424,172.319 104.530,172.459 103.998 C 172.576 103.548,172.455 103.400,171.969 103.400 C 171.711 103.400,171.616 103.534,171.643 103.860 M172.539 105.128 C 172.379 105.288,172.560 105.600,172.812 105.600 C 172.915 105.600,173.000 105.465,173.000 105.300 C 173.000 104.991,172.764 104.903,172.539 105.128 M230.400 105.300 C 230.400 105.465,230.480 105.600,230.579 105.600 C 230.677 105.600,230.809 105.465,230.872 105.300 C 230.942 105.117,230.873 105.000,230.694 105.000 C 230.532 105.000,230.400 105.135,230.400 105.300 M204.400 105.800 C 204.400 106.194,204.501 106.400,204.693 106.400 C 205.118 106.400,205.439 105.719,205.151 105.431 C 204.732 105.012,204.400 105.176,204.400 105.800 M198.236 105.848 C 198.331 106.513,199.000 106.571,199.000 105.915 C 199.000 105.528,198.897 105.400,198.586 105.400 C 198.272 105.400,198.188 105.508,198.236 105.848 M205.000 107.100 C 205.000 107.636,205.671 107.833,205.849 107.350 C 206.001 106.938,205.791 106.600,205.383 106.600 C 205.108 106.600,205.000 106.741,205.000 107.100 M197.525 106.960 C 197.349 107.245,197.751 107.662,198.080 107.535 C 198.532 107.362,198.480 106.800,198.012 106.800 C 197.798 106.800,197.579 106.872,197.525 106.960 M229.000 107.879 C 229.000 108.032,229.135 108.209,229.300 108.272 C 229.504 108.351,229.600 108.262,229.600 107.994 C 229.600 107.777,229.465 107.600,229.300 107.600 C 229.135 107.600,229.000 107.725,229.000 107.879 M205.636 108.448 C 205.713 108.984,206.298 109.154,206.475 108.692 C 206.644 108.252,206.462 108.000,205.974 108.000 C 205.672 108.000,205.588 108.111,205.636 108.448 M228.200 109.200 C 228.200 109.467,228.333 109.600,228.600 109.600 C 228.867 109.600,229.000 109.467,229.000 109.200 C 229.000 108.933,228.867 108.800,228.600 108.800 C 228.333 108.800,228.200 108.933,228.200 109.200 M206.400 109.900 C 206.400 110.296,206.488 110.412,206.750 110.362 C 206.943 110.325,207.100 110.117,207.100 109.900 C 207.100 109.683,206.943 109.475,206.750 109.438 C 206.488 109.388,206.400 109.504,206.400 109.900 M227.476 110.290 C 227.321 110.695,227.552 111.000,228.012 111.000 C 228.293 111.000,228.400 110.862,228.400 110.500 C 228.400 109.937,227.675 109.772,227.476 110.290 M207.000 111.200 C 207.000 111.467,207.133 111.600,207.400 111.600 C 207.667 111.600,207.800 111.467,207.800 111.200 C 207.800 110.933,207.667 110.800,207.400 110.800 C 207.133 110.800,207.000 110.933,207.000 111.200 M226.872 111.500 C 226.712 111.917,226.949 112.450,227.250 112.351 C 227.643 112.222,227.694 111.200,227.307 111.200 C 227.131 111.200,226.936 111.335,226.872 111.500 M195.000 111.917 C 195.000 112.091,195.107 112.198,195.238 112.154 C 195.608 112.031,195.670 111.600,195.317 111.600 C 195.143 111.600,195.000 111.743,195.000 111.917 M207.638 112.548 C 207.738 113.069,208.400 113.127,208.400 112.615 C 208.400 112.328,208.272 112.200,207.985 112.200 C 207.699 112.200,207.591 112.308,207.638 112.548 M194.333 112.933 C 194.058 113.209,194.215 113.600,194.600 113.600 C 194.867 113.600,195.000 113.467,195.000 113.200 C 195.000 112.815,194.609 112.658,194.333 112.933 M208.400 113.967 C 208.400 114.168,208.528 114.333,208.685 114.333 C 208.842 114.333,209.014 114.168,209.067 113.967 C 209.135 113.706,209.053 113.600,208.781 113.600 C 208.545 113.600,208.400 113.739,208.400 113.967 M193.479 114.516 C 193.545 114.690,193.600 114.870,193.600 114.916 C 193.600 114.962,193.780 115.000,194.000 115.000 C 194.267 115.000,194.400 114.867,194.400 114.600 C 194.400 114.302,194.267 114.200,193.879 114.200 C 193.485 114.200,193.387 114.278,193.479 114.516 M177.000 115.200 C 177.000 115.467,177.133 115.600,177.400 115.600 C 177.667 115.600,177.800 115.467,177.800 115.200 C 177.800 114.933,177.667 114.800,177.400 114.800 C 177.133 114.800,177.000 114.933,177.000 115.200 M209.128 115.300 C 209.191 115.465,209.314 115.600,209.400 115.600 C 209.486 115.600,209.609 115.465,209.672 115.300 C 209.750 115.097,209.662 115.000,209.400 115.000 C 209.138 115.000,209.050 115.097,209.128 115.300 M192.836 115.848 C 192.931 116.513,193.600 116.571,193.600 115.915 C 193.600 115.528,193.497 115.400,193.186 115.400 C 192.872 115.400,192.788 115.508,192.836 115.848 M177.638 116.464 C 177.672 116.701,177.858 116.926,178.050 116.963 C 178.566 117.061,178.507 116.275,177.988 116.139 C 177.655 116.052,177.588 116.114,177.638 116.464 M224.325 116.360 C 224.167 116.615,224.534 117.065,224.778 116.914 C 225.099 116.715,225.051 116.200,224.712 116.200 C 224.553 116.200,224.379 116.272,224.325 116.360 M178.400 117.879 C 178.400 118.032,178.535 118.209,178.700 118.272 C 178.904 118.351,179.000 118.262,179.000 117.994 C 179.000 117.777,178.865 117.600,178.700 117.600 C 178.535 117.600,178.400 117.725,178.400 117.879 M223.600 118.000 C 223.600 118.267,223.733 118.400,224.000 118.400 C 224.267 118.400,224.400 118.267,224.400 118.000 C 224.400 117.733,224.267 117.600,224.000 117.600 C 223.733 117.600,223.600 117.733,223.600 118.000 M210.400 118.400 C 210.400 118.854,210.491 119.000,210.777 119.000 C 211.213 119.000,211.456 118.336,211.137 118.017 C 210.732 117.612,210.400 117.784,210.400 118.400 M222.838 119.148 C 222.938 119.669,223.600 119.727,223.600 119.215 C 223.600 118.928,223.472 118.800,223.185 118.800 C 222.899 118.800,222.791 118.908,222.838 119.148 M211.072 119.500 C 210.913 119.914,211.129 120.400,211.472 120.400 C 211.816 120.400,212.031 119.914,211.872 119.500 C 211.809 119.335,211.629 119.200,211.472 119.200 C 211.316 119.200,211.136 119.335,211.072 119.500 M222.200 120.500 C 222.200 120.867,222.307 121.000,222.600 121.000 C 222.893 121.000,223.000 120.867,223.000 120.500 C 223.000 120.133,222.893 120.000,222.600 120.000 C 222.307 120.000,222.200 120.133,222.200 120.500 M211.600 121.106 C 211.600 121.467,211.708 121.600,212.000 121.600 C 212.220 121.600,212.400 121.510,212.400 121.400 C 212.400 121.290,212.407 121.137,212.415 121.060 C 212.423 120.983,212.243 120.851,212.015 120.766 C 211.666 120.637,211.600 120.691,211.600 121.106 M221.472 121.500 C 221.294 121.965,221.545 122.400,221.994 122.400 C 222.312 122.400,222.400 122.270,222.400 121.800 C 222.400 121.142,221.697 120.915,221.472 121.500 M189.600 121.988 C 189.600 122.238,189.728 122.366,189.960 122.348 C 190.462 122.310,190.488 121.600,189.988 121.600 C 189.737 121.600,189.600 121.737,189.600 121.988 M212.400 122.615 C 212.400 122.901,212.508 123.009,212.748 122.962 C 213.269 122.862,213.327 122.200,212.815 122.200 C 212.528 122.200,212.400 122.328,212.400 122.615 M188.900 123.000 C 188.733 123.271,188.958 123.600,189.312 123.600 C 189.470 123.600,189.600 123.420,189.600 123.200 C 189.600 122.786,189.117 122.648,188.900 123.000 M181.000 123.792 C 181.000 124.161,181.493 124.578,181.690 124.375 C 181.995 124.060,181.850 123.493,181.450 123.436 C 181.106 123.387,181.000 123.471,181.000 123.792 M213.000 123.776 C 213.000 124.038,213.517 124.416,213.668 124.265 C 213.942 123.991,213.784 123.600,213.400 123.600 C 213.180 123.600,213.000 123.679,213.000 123.776 M188.200 124.500 C 188.200 124.867,188.307 125.000,188.600 125.000 C 188.893 125.000,189.000 124.867,189.000 124.500 C 189.000 124.133,188.893 124.000,188.600 124.000 C 188.307 124.000,188.200 124.133,188.200 124.500 M181.600 125.106 C 181.600 125.467,181.708 125.600,182.000 125.600 C 182.220 125.600,182.400 125.510,182.400 125.400 C 182.400 125.290,182.407 125.137,182.415 125.060 C 182.423 124.983,182.243 124.851,182.015 124.766 C 181.666 124.637,181.600 124.691,181.600 125.106 M182.400 126.600 C 182.400 126.822,182.533 127.000,182.700 127.000 C 182.867 127.000,183.000 126.822,183.000 126.600 C 183.000 126.378,182.867 126.200,182.700 126.200 C 182.533 126.200,182.400 126.378,182.400 126.600 M219.000 126.600 C 219.000 126.822,219.133 127.000,219.300 127.000 C 219.467 127.000,219.600 126.822,219.600 126.600 C 219.600 126.378,219.467 126.200,219.300 126.200 C 219.133 126.200,219.000 126.378,219.000 126.600 M183.050 127.850 C 183.176 128.228,183.800 128.282,183.800 127.915 C 183.800 127.729,183.629 127.600,183.383 127.600 C 183.139 127.600,183.001 127.703,183.050 127.850 M218.200 127.867 C 218.200 128.243,218.392 128.390,218.720 128.265 C 219.145 128.102,219.055 127.600,218.600 127.600 C 218.380 127.600,218.200 127.720,218.200 127.867 M215.133 127.933 C 214.769 128.298,215.010 129.000,215.500 129.000 C 216.004 129.000,216.117 128.737,215.879 128.116 C 215.754 127.791,215.370 127.697,215.133 127.933 " stroke="none" fill="#a5c6e0" fill-rule="evenodd"></path><path id="path3" d="M190.911 72.495 C 190.837 72.988,190.692 73.443,190.588 73.507 C 190.255 73.714,190.388 74.000,190.818 74.000 C 191.194 74.000,191.222 74.079,191.100 74.800 C 190.979 75.517,191.007 75.600,191.375 75.600 C 191.601 75.600,191.879 75.774,191.993 75.987 C 192.261 76.487,192.258 76.514,191.886 76.886 C 191.600 77.171,191.619 77.200,192.092 77.200 C 192.668 77.200,192.981 77.699,192.627 78.053 C 192.317 78.363,192.341 78.610,192.668 78.485 C 193.106 78.316,193.519 78.963,193.250 79.395 C 192.990 79.811,193.110 80.000,193.633 80.000 C 194.052 80.000,194.130 80.590,193.760 80.960 C 193.573 81.147,193.612 81.200,193.936 81.200 C 194.486 81.200,194.832 81.626,194.592 82.007 C 194.318 82.439,194.355 82.541,194.827 82.665 C 195.182 82.758,195.234 82.879,195.135 83.376 C 195.033 83.885,195.081 83.984,195.458 84.037 C 195.899 84.100,195.972 84.391,195.707 85.034 C 195.605 85.282,195.689 85.385,196.035 85.434 C 196.419 85.489,196.490 85.604,196.444 86.100 C 196.401 86.563,196.492 86.746,196.844 86.900 C 197.173 87.044,197.300 87.267,197.300 87.700 C 197.300 88.083,197.426 88.352,197.650 88.444 C 198.053 88.609,198.127 89.515,197.750 89.668 C 197.613 89.723,197.691 89.776,197.926 89.784 C 198.569 89.808,198.934 90.339,198.636 90.816 C 198.429 91.147,198.452 91.200,198.805 91.200 C 199.287 91.200,199.549 91.731,199.227 92.053 C 198.885 92.395,198.953 92.600,199.406 92.600 C 199.887 92.600,200.149 93.131,199.827 93.453 C 199.463 93.817,199.562 94.000,200.122 94.000 C 200.611 94.000,200.636 94.045,200.513 94.700 C 200.396 95.324,200.429 95.400,200.813 95.400 C 201.196 95.400,201.230 95.477,201.116 96.085 C 201.008 96.659,201.053 96.790,201.394 96.898 C 202.045 97.105,202.298 97.761,201.898 98.203 C 201.582 98.551,201.586 98.566,201.964 98.467 C 202.452 98.340,202.869 98.969,202.589 99.411 C 202.286 99.889,202.375 100.169,202.850 100.236 C 203.376 100.311,203.611 101.343,203.166 101.625 C 202.976 101.745,203.031 101.795,203.356 101.797 C 203.909 101.801,204.148 102.317,203.832 102.824 C 203.518 103.325,203.532 103.362,204.050 103.436 C 204.438 103.491,204.491 103.602,204.436 104.234 C 204.381 104.873,204.433 104.977,204.836 105.034 C 205.204 105.086,205.300 105.225,205.300 105.700 C 205.300 106.083,205.426 106.352,205.650 106.444 C 206.053 106.609,206.127 107.515,205.750 107.668 C 205.613 107.723,205.691 107.776,205.926 107.784 C 206.559 107.808,206.934 108.339,206.644 108.803 C 206.447 109.119,206.478 109.183,206.856 109.237 C 207.332 109.305,207.633 110.200,207.181 110.200 C 207.045 110.200,207.000 110.266,207.081 110.347 C 207.162 110.429,207.379 110.496,207.564 110.497 C 207.781 110.499,207.922 110.695,207.963 111.050 C 207.999 111.362,207.929 111.600,207.801 111.600 C 207.678 111.600,207.633 111.691,207.702 111.803 C 207.771 111.915,207.898 111.963,207.984 111.910 C 208.338 111.691,208.863 112.324,208.647 112.709 C 208.478 113.010,208.521 113.126,208.869 113.307 C 209.309 113.537,209.332 113.636,209.093 114.250 C 208.990 114.517,209.059 114.600,209.385 114.600 C 209.883 114.600,210.155 115.125,209.827 115.453 C 209.523 115.757,209.538 116.226,209.850 116.185 C 210.478 116.104,210.573 116.212,210.464 116.883 C 210.366 117.487,210.408 117.574,210.827 117.633 C 211.177 117.683,211.317 117.847,211.365 118.265 C 211.400 118.575,211.605 119.005,211.819 119.219 C 212.127 119.527,212.165 119.692,211.998 120.005 C 211.833 120.312,211.849 120.400,212.068 120.400 C 212.582 120.400,212.907 120.982,212.636 121.416 C 212.443 121.725,212.451 121.800,212.674 121.800 C 213.161 121.800,213.453 122.327,213.214 122.773 C 213.033 123.113,213.068 123.182,213.450 123.236 C 213.915 123.302,214.007 123.740,213.706 124.450 C 213.586 124.733,213.659 124.800,214.088 124.800 C 214.586 124.800,214.610 124.843,214.487 125.500 C 214.371 126.115,214.405 126.200,214.765 126.200 C 215.122 126.200,215.160 126.291,215.061 126.900 C 214.964 127.498,215.004 127.600,215.334 127.600 C 215.851 127.600,216.200 127.979,216.200 128.540 C 216.200 128.932,216.303 129.000,216.900 129.000 C 217.467 129.000,217.600 128.924,217.600 128.600 C 217.600 128.380,217.669 128.200,217.753 128.200 C 217.836 128.200,217.995 127.998,218.105 127.750 C 218.214 127.503,218.463 127.313,218.657 127.329 C 218.953 127.353,218.990 127.248,218.883 126.679 C 218.770 126.075,218.804 126.000,219.194 126.000 C 219.576 126.000,219.615 125.924,219.500 125.400 C 219.380 124.852,219.414 124.800,219.893 124.800 C 220.385 124.800,220.410 124.756,220.287 124.100 C 220.173 123.491,220.207 123.400,220.552 123.400 C 220.876 123.400,220.972 123.219,221.080 122.407 C 221.164 121.775,221.348 121.319,221.586 121.152 C 221.792 121.008,221.992 120.667,222.030 120.395 C 222.077 120.064,222.247 119.879,222.544 119.837 C 222.922 119.783,222.953 119.719,222.756 119.403 C 222.505 119.001,222.821 118.400,223.282 118.400 C 223.411 118.400,223.512 118.153,223.508 117.850 C 223.502 117.429,223.606 117.285,223.950 117.236 C 224.328 117.182,224.366 117.111,224.190 116.782 C 223.931 116.298,224.098 116.000,224.628 116.000 C 224.973 116.000,225.012 115.912,224.900 115.400 C 224.785 114.878,224.824 114.800,225.199 114.800 C 225.565 114.800,225.620 114.702,225.565 114.150 C 225.507 113.566,225.548 113.507,225.975 113.567 C 226.404 113.627,226.441 113.572,226.359 113.008 C 226.308 112.664,226.342 112.336,226.433 112.279 C 226.525 112.223,226.600 112.002,226.600 111.790 C 226.600 111.577,226.771 111.297,226.980 111.166 C 227.189 111.036,227.314 110.809,227.258 110.662 C 227.113 110.285,227.570 109.801,228.074 109.797 C 228.387 109.795,228.429 109.749,228.230 109.623 C 227.829 109.369,228.039 108.709,228.544 108.637 C 228.917 108.584,228.967 108.483,228.867 107.987 C 228.767 107.485,228.812 107.400,229.175 107.400 C 229.514 107.400,229.600 107.278,229.600 106.800 C 229.600 106.085,230.127 105.965,230.259 106.650 C 230.320 106.969,230.353 106.906,230.373 106.437 C 230.388 106.072,230.310 105.606,230.201 105.401 C 229.937 104.908,230.150 104.400,230.621 104.400 C 230.888 104.400,231.000 104.258,231.000 103.919 C 231.000 103.541,230.917 103.459,230.613 103.539 C 230.146 103.661,229.801 102.365,230.151 101.805 C 230.320 101.533,230.280 101.475,229.929 101.486 C 229.561 101.498,229.503 101.394,229.522 100.755 C 229.535 100.346,229.463 100.061,229.364 100.123 C 229.016 100.338,228.593 99.786,228.804 99.392 C 229.105 98.831,229.040 98.600,228.582 98.600 C 228.205 98.600,228.178 98.522,228.303 97.784 C 228.433 97.013,228.415 96.972,227.977 97.034 C 227.387 97.118,226.919 96.100,227.407 95.791 C 227.639 95.645,227.609 95.605,227.263 95.603 C 226.741 95.599,226.459 94.911,226.808 94.490 C 227.006 94.252,226.972 94.200,226.618 94.200 C 226.093 94.200,225.856 93.676,226.162 93.187 C 226.351 92.883,226.317 92.816,225.944 92.763 C 225.585 92.712,225.505 92.579,225.528 92.067 C 225.549 91.587,225.458 91.409,225.150 91.329 C 224.820 91.243,224.767 91.113,224.865 90.624 C 224.967 90.115,224.919 90.016,224.542 89.958 C 224.086 89.888,224.062 89.804,224.286 89.065 C 224.392 88.716,224.327 88.617,223.959 88.565 C 223.596 88.514,223.511 88.390,223.554 87.974 C 223.594 87.579,223.500 87.421,223.176 87.336 C 222.814 87.241,222.765 87.124,222.869 86.604 C 222.956 86.172,222.918 85.994,222.747 86.016 C 222.203 86.086,222.000 85.983,222.000 85.640 C 222.000 85.442,222.113 85.167,222.250 85.028 C 222.450 84.826,222.430 84.803,222.147 84.911 C 221.619 85.112,221.235 84.670,221.089 83.695 C 220.985 83.006,220.868 82.809,220.529 82.761 C 220.261 82.723,220.076 82.531,220.036 82.250 C 220.001 82.002,219.888 81.800,219.786 81.800 C 219.684 81.800,219.600 81.575,219.600 81.300 C 219.600 80.970,219.488 80.800,219.273 80.800 C 218.985 80.800,218.000 79.937,218.000 79.684 C 218.000 79.519,216.279 77.861,215.744 77.510 C 215.397 77.283,215.188 76.920,215.098 76.387 C 214.957 75.551,214.816 75.462,214.224 75.832 C 213.733 76.138,213.200 75.915,213.200 75.402 C 213.200 75.062,213.113 75.014,212.688 75.121 C 212.276 75.224,212.154 75.166,212.064 74.825 C 211.942 74.356,211.839 74.318,211.411 74.589 C 210.980 74.862,210.340 74.452,210.462 73.983 C 210.579 73.536,210.026 73.456,209.424 73.832 C 208.935 74.137,208.400 73.915,208.400 73.406 C 208.400 72.976,207.733 72.823,207.500 73.200 C 207.200 73.685,205.200 73.255,205.200 72.705 C 205.200 72.323,203.395 72.275,202.808 72.641 C 202.508 72.829,201.793 72.830,199.605 72.649 C 196.551 72.397,196.252 72.320,196.615 71.882 C 196.815 71.641,196.423 71.600,193.947 71.600 L 191.045 71.600 190.911 72.495 M223.404 71.905 C 223.543 72.072,223.622 72.232,223.579 72.259 C 223.209 72.491,222.114 72.754,221.885 72.667 C 221.714 72.601,221.600 72.681,221.600 72.865 C 221.600 73.034,221.803 73.201,222.050 73.236 C 222.456 73.294,222.493 73.393,222.433 74.250 C 222.374 75.105,222.409 75.200,222.790 75.200 C 223.284 75.200,223.554 75.726,223.227 76.053 C 222.864 76.416,222.964 76.767,223.450 76.841 C 223.730 76.884,223.871 77.021,223.823 77.205 C 223.542 78.277,223.555 78.400,223.952 78.400 C 224.525 78.400,224.932 78.947,224.669 79.363 C 224.506 79.622,224.552 79.740,224.880 79.908 C 225.302 80.125,225.361 80.416,225.107 81.034 C 225.005 81.282,225.089 81.386,225.435 81.439 C 225.914 81.512,225.922 81.543,225.698 82.439 C 225.579 82.912,225.626 82.977,226.132 83.035 C 226.615 83.090,226.700 83.189,226.700 83.700 C 226.700 84.083,226.826 84.352,227.050 84.444 C 227.453 84.609,227.527 85.515,227.150 85.668 C 227.013 85.723,227.105 85.776,227.356 85.784 C 227.912 85.803,228.146 86.320,227.830 86.826 C 227.633 87.142,227.656 87.200,227.974 87.200 C 228.491 87.200,228.825 87.637,228.592 88.007 C 228.312 88.448,228.360 88.600,228.779 88.600 C 229.227 88.600,229.436 89.021,229.185 89.418 C 228.909 89.854,228.964 90.000,229.406 90.000 C 229.887 90.000,230.149 90.531,229.827 90.853 C 229.480 91.200,229.557 91.441,229.972 91.309 C 230.446 91.158,230.844 91.607,230.592 92.007 C 230.309 92.454,230.361 92.600,230.806 92.600 C 231.302 92.600,231.530 93.102,231.211 93.487 C 231.022 93.715,231.066 93.782,231.438 93.835 C 231.736 93.877,231.922 94.057,231.963 94.343 C 232.070 95.095,233.075 96.000,233.804 96.000 C 234.360 96.000,234.432 95.943,234.336 95.577 C 234.275 95.344,234.303 95.007,234.398 94.827 C 234.493 94.647,234.620 94.343,234.679 94.150 C 234.739 93.958,234.973 93.800,235.201 93.800 C 235.530 93.800,235.577 93.728,235.434 93.450 C 235.171 92.939,235.365 92.600,235.918 92.600 C 236.342 92.600,236.374 92.553,236.170 92.226 C 235.863 91.734,236.084 91.200,236.595 91.200 C 236.948 91.200,236.971 91.147,236.764 90.816 C 236.493 90.382,236.818 89.800,237.332 89.800 C 237.555 89.800,237.568 89.714,237.393 89.387 C 237.153 88.938,237.427 88.400,237.897 88.400 C 238.053 88.400,238.109 88.216,238.049 87.899 C 237.937 87.312,238.339 86.734,238.750 86.891 C 238.981 86.980,239.009 86.847,238.898 86.187 C 238.777 85.471,238.810 85.360,239.175 85.264 C 239.512 85.176,239.552 85.085,239.388 84.778 C 239.122 84.281,239.480 83.600,240.007 83.600 C 240.460 83.600,240.504 83.360,240.151 82.797 C 239.853 82.319,240.166 81.684,240.678 81.728 C 241.054 81.760,241.089 81.415,240.779 80.735 C 240.522 80.170,240.827 79.400,241.307 79.400 C 241.644 79.400,241.723 78.300,241.400 78.100 C 241.290 78.032,241.200 77.357,241.200 76.600 C 241.200 75.843,241.290 75.168,241.400 75.100 C 241.709 74.909,241.636 74.400,241.300 74.400 C 241.133 74.400,241.000 74.222,241.000 74.000 C 241.000 73.778,240.867 73.600,240.700 73.600 C 240.535 73.600,240.400 73.696,240.400 73.813 C 240.400 74.267,239.302 73.914,239.235 73.438 C 239.182 73.066,239.115 73.022,238.887 73.211 C 238.470 73.557,237.600 73.276,237.600 72.796 C 237.600 72.333,236.654 72.238,236.015 72.637 C 235.421 73.008,233.925 72.509,234.062 71.986 C 234.160 71.612,233.998 71.600,228.657 71.600 C 223.747 71.600,223.178 71.633,223.404 71.905 M202.190 73.621 C 208.850 74.484,209.871 76.243,207.398 82.600 C 207.163 83.205,206.898 83.925,206.811 84.200 C 206.008 86.726,202.649 93.000,202.100 93.000 C 201.790 93.000,200.944 91.808,200.185 90.303 C 199.963 89.862,199.701 89.365,199.605 89.200 C 199.023 88.205,195.287 80.370,194.598 78.700 C 194.144 77.600,193.652 76.430,193.503 76.100 C 193.052 75.096,192.916 74.018,193.228 73.907 C 194.402 73.487,199.820 73.315,202.190 73.621 " stroke="none" fill="#447ba4" fill-rule="evenodd"></path><path id="path4" d="M158.650 71.732 C 158.205 71.912,158.323 73.800,158.779 73.800 C 159.250 73.800,159.463 74.308,159.199 74.801 C 158.923 75.318,158.940 75.363,159.450 75.441 C 159.916 75.512,159.939 75.593,159.710 76.350 C 159.599 76.716,159.651 76.800,159.987 76.800 C 160.336 76.800,160.400 76.925,160.400 77.600 C 160.400 78.178,160.483 78.400,160.700 78.400 C 160.865 78.400,161.000 78.495,161.000 78.612 C 161.000 78.728,160.916 78.772,160.814 78.709 C 160.711 78.645,160.567 78.692,160.493 78.812 C 160.404 78.956,160.554 79.008,160.929 78.965 C 161.779 78.868,161.900 77.808,161.063 77.784 C 160.753 77.776,160.613 77.723,160.750 77.668 C 161.167 77.499,161.053 76.576,160.600 76.458 C 160.303 76.380,160.200 76.185,160.200 75.701 C 160.200 75.342,160.065 74.937,159.900 74.800 C 159.735 74.663,159.600 74.310,159.600 74.016 C 159.600 73.721,159.492 73.372,159.360 73.240 C 159.058 72.938,159.451 72.922,165.519 72.994 C 169.651 73.042,170.152 73.013,170.265 72.719 C 170.367 72.452,170.323 72.427,170.026 72.586 C 169.354 72.946,166.861 72.602,166.287 72.071 C 165.798 71.617,159.615 71.343,158.650 71.732 M172.347 72.520 C 172.194 72.673,172.406 73.256,172.685 73.447 C 173.123 73.747,175.000 73.622,175.000 73.293 C 175.000 73.052,174.917 73.030,174.614 73.193 C 174.224 73.401,173.600 73.028,173.600 72.586 C 173.600 72.383,172.540 72.327,172.347 72.520 M175.901 73.398 C 175.831 73.617,175.830 73.887,175.899 73.998 C 176.061 74.260,177.600 74.262,177.600 74.000 C 177.600 73.890,177.420 73.800,177.200 73.800 C 176.933 73.800,176.800 73.667,176.800 73.400 C 176.800 72.867,176.070 72.865,175.901 73.398 M178.000 74.093 C 178.000 74.645,178.504 75.000,179.287 75.000 C 179.626 75.000,179.800 75.110,179.800 75.323 C 179.800 75.567,179.945 75.624,180.400 75.557 C 180.880 75.487,181.000 75.542,181.000 75.835 C 181.000 76.159,181.435 76.321,182.050 76.224 C 182.133 76.211,182.200 76.296,182.200 76.413 C 182.200 76.531,182.368 76.574,182.574 76.508 C 182.869 76.415,182.973 76.517,183.069 76.995 C 183.136 77.328,183.276 77.600,183.382 77.600 C 183.629 77.600,185.800 79.766,185.800 80.013 C 185.800 80.116,185.935 80.200,186.100 80.200 C 186.265 80.200,186.400 80.337,186.400 80.505 C 186.400 80.673,186.623 80.895,186.896 80.999 C 187.248 81.132,187.355 81.284,187.264 81.523 C 187.189 81.716,187.260 81.951,187.430 82.079 C 187.592 82.201,187.784 82.458,187.856 82.650 C 188.136 83.396,189.003 83.086,188.973 82.250 C 188.956 81.786,188.913 81.671,188.859 81.950 C 188.811 82.198,188.679 82.400,188.565 82.400 C 188.451 82.400,188.400 82.288,188.452 82.150 C 188.602 81.755,188.244 81.000,187.906 81.000 C 187.738 81.000,187.600 80.910,187.600 80.800 C 187.600 80.690,187.420 80.600,187.200 80.600 C 186.974 80.600,186.800 80.467,186.800 80.294 C 186.800 80.125,186.657 79.933,186.483 79.866 C 186.243 79.774,186.196 79.582,186.292 79.072 C 186.402 78.487,186.365 78.400,186.009 78.400 C 185.775 78.400,185.600 78.269,185.600 78.094 C 185.600 77.925,185.465 77.736,185.300 77.672 C 185.135 77.609,185.000 77.428,185.000 77.270 C 185.000 77.048,184.836 77.013,184.288 77.116 C 183.677 77.230,183.560 77.190,183.468 76.838 C 183.409 76.612,183.229 76.377,183.068 76.315 C 182.906 76.253,182.831 76.112,182.899 76.001 C 182.968 75.891,182.883 75.800,182.712 75.800 C 182.533 75.800,182.400 75.629,182.400 75.400 C 182.400 75.146,182.272 75.006,182.050 75.016 C 181.841 75.025,181.801 75.072,181.950 75.132 C 182.302 75.274,182.262 75.800,181.900 75.800 C 181.733 75.800,181.600 75.622,181.600 75.400 C 181.600 75.178,181.467 75.000,181.300 75.000 C 181.135 75.000,181.000 74.858,181.000 74.685 C 181.000 74.432,180.797 74.381,179.969 74.425 C 179.064 74.473,178.918 74.426,178.776 74.040 C 178.550 73.431,178.000 73.469,178.000 74.093 M161.000 79.800 C 161.000 80.188,161.101 80.400,161.287 80.400 C 161.451 80.400,161.600 80.635,161.637 80.950 C 161.713 81.610,162.655 81.865,162.878 81.285 C 163.053 80.829,162.630 80.364,162.172 80.509 C 161.967 80.574,161.800 80.531,161.800 80.413 C 161.800 80.296,161.890 80.200,162.000 80.200 C 162.110 80.200,162.200 79.975,162.200 79.700 C 162.200 79.278,162.107 79.200,161.600 79.200 C 161.067 79.200,161.000 79.267,161.000 79.800 M162.400 82.400 C 162.400 82.907,162.478 83.000,162.900 83.000 C 163.322 83.000,163.400 82.907,163.400 82.400 C 163.400 81.893,163.322 81.800,162.900 81.800 C 162.478 81.800,162.400 81.893,162.400 82.400 M188.806 83.388 C 188.668 83.646,188.666 83.817,188.799 83.900 C 188.910 83.968,189.000 84.207,189.000 84.431 C 189.000 84.669,189.165 84.881,189.400 84.942 C 189.683 85.016,189.800 85.215,189.800 85.623 C 189.800 86.131,189.872 86.200,190.400 86.200 C 190.933 86.200,191.000 86.133,191.000 85.600 C 191.000 85.200,190.900 85.000,190.700 85.000 C 190.535 85.000,190.400 84.916,190.400 84.814 C 190.400 84.712,190.197 84.599,189.950 84.564 C 189.560 84.509,189.509 84.399,189.566 83.750 C 189.639 82.907,189.181 82.688,188.806 83.388 M163.000 83.787 C 163.000 84.239,163.092 84.399,163.350 84.397 C 164.338 84.388,164.516 83.348,163.548 83.237 C 163.056 83.180,163.000 83.236,163.000 83.787 M163.600 84.900 C 163.600 85.065,163.769 85.200,163.976 85.200 C 164.491 85.200,164.825 85.637,164.592 86.007 C 164.321 86.435,164.355 86.541,164.800 86.658 C 165.039 86.721,165.200 86.931,165.200 87.181 C 165.200 87.412,165.290 87.600,165.400 87.600 C 165.712 87.600,165.635 86.463,165.300 86.129 C 165.135 85.964,165.000 85.660,165.000 85.454 C 165.000 85.248,164.892 84.972,164.760 84.840 C 164.415 84.495,163.600 84.537,163.600 84.900 M190.518 86.725 C 190.360 87.137,190.734 87.600,191.224 87.600 C 191.508 87.600,191.600 87.454,191.600 87.000 C 191.600 86.321,190.755 86.106,190.518 86.725 M165.000 88.000 C 165.000 88.110,165.191 88.200,165.425 88.200 C 165.789 88.200,165.833 88.285,165.732 88.789 C 165.638 89.258,165.694 89.403,166.007 89.502 C 166.297 89.594,166.400 89.807,166.400 90.313 C 166.400 90.802,166.490 91.000,166.712 91.000 C 166.883 91.000,166.967 91.091,166.898 91.203 C 166.829 91.315,166.689 91.355,166.586 91.291 C 166.484 91.228,166.400 91.258,166.400 91.358 C 166.400 91.458,166.675 91.547,167.012 91.557 C 167.824 91.580,167.814 90.603,167.000 90.378 C 166.725 90.302,166.613 90.231,166.750 90.220 C 167.179 90.186,167.049 89.175,166.600 89.058 C 166.317 88.984,166.200 88.785,166.200 88.377 C 166.200 87.869,166.128 87.800,165.600 87.800 C 165.270 87.800,165.000 87.890,165.000 88.000 M167.000 92.400 C 167.000 92.788,167.101 93.000,167.287 93.000 C 167.465 93.000,167.599 93.247,167.637 93.648 C 167.709 94.388,168.177 94.595,168.667 94.104 C 169.096 93.675,168.871 93.200,168.239 93.200 C 167.835 93.200,167.773 93.147,167.960 92.960 C 168.457 92.463,168.251 91.800,167.600 91.800 C 167.067 91.800,167.000 91.867,167.000 92.400 M168.400 94.800 C 168.400 95.069,168.533 95.200,168.806 95.200 C 169.287 95.200,169.549 95.731,169.227 96.053 C 168.886 96.394,168.951 96.565,169.450 96.636 C 169.905 96.701,169.947 96.898,169.689 97.750 C 169.578 98.118,169.631 98.200,169.977 98.200 C 170.220 98.200,170.400 98.328,170.400 98.500 C 170.400 98.897,170.725 98.885,170.879 98.482 C 171.054 98.027,170.852 97.800,170.274 97.800 C 169.822 97.800,169.803 97.769,170.078 97.493 C 170.385 97.186,170.331 96.825,169.832 95.863 C 169.728 95.663,169.545 95.252,169.426 94.950 C 169.164 94.286,168.400 94.174,168.400 94.800 M195.000 94.800 C 195.000 95.022,195.133 95.200,195.300 95.200 C 195.467 95.200,195.600 95.022,195.600 94.800 C 195.600 94.578,195.467 94.400,195.300 94.400 C 195.133 94.400,195.000 94.578,195.000 94.800 M195.450 96.200 C 195.495 96.365,195.749 96.517,196.016 96.537 C 196.398 96.566,196.415 96.551,196.100 96.464 C 195.880 96.403,195.626 96.252,195.535 96.127 C 195.426 95.977,195.397 96.002,195.450 96.200 M196.606 98.926 C 196.597 99.256,197.145 99.654,197.443 99.535 C 197.609 99.468,197.579 99.426,197.360 99.416 C 197.173 99.407,196.928 99.243,196.816 99.050 C 196.704 98.858,196.609 98.801,196.606 98.926 M197.600 100.706 C 197.600 101.030,197.913 101.103,198.087 100.821 C 198.148 100.722,198.063 100.590,197.899 100.527 C 197.717 100.458,197.600 100.528,197.600 100.706 M198.800 102.000 C 198.800 102.220,198.700 102.400,198.579 102.400 C 198.457 102.400,198.409 102.265,198.472 102.100 C 198.536 101.935,198.500 101.800,198.394 101.800 C 198.287 101.800,198.200 101.980,198.200 102.200 C 198.200 102.467,198.333 102.600,198.600 102.600 C 198.893 102.600,199.000 102.467,199.000 102.100 C 199.000 101.825,198.955 101.600,198.900 101.600 C 198.845 101.600,198.800 101.780,198.800 102.000 M172.400 105.012 C 172.400 105.128,172.500 105.162,172.622 105.086 C 172.745 105.011,172.923 105.073,173.019 105.224 C 173.157 105.442,173.195 105.427,173.197 105.150 C 173.199 104.932,173.049 104.800,172.800 104.800 C 172.580 104.800,172.400 104.895,172.400 105.012 M173.000 106.600 C 173.000 106.867,173.133 107.000,173.400 107.000 C 173.667 107.000,173.800 106.867,173.800 106.600 C 173.800 106.333,173.667 106.200,173.400 106.200 C 173.133 106.200,173.000 106.333,173.000 106.600 M173.800 107.879 C 173.800 108.032,173.935 108.209,174.100 108.272 C 174.304 108.351,174.400 108.262,174.400 107.994 C 174.400 107.777,174.265 107.600,174.100 107.600 C 173.935 107.600,173.800 107.725,173.800 107.879 M196.400 109.317 C 196.400 109.491,196.507 109.598,196.638 109.554 C 197.008 109.431,197.070 109.000,196.717 109.000 C 196.543 109.000,196.400 109.142,196.400 109.317 M195.600 110.615 C 195.600 110.901,195.708 111.009,195.948 110.962 C 196.469 110.862,196.527 110.200,196.015 110.200 C 195.728 110.200,195.600 110.328,195.600 110.615 M194.876 111.690 C 194.815 111.850,194.823 112.075,194.894 112.190 C 195.057 112.454,195.600 112.466,195.600 112.206 C 195.600 112.100,195.465 112.064,195.300 112.128 C 195.114 112.199,195.000 112.127,195.000 111.936 C 195.000 111.767,195.158 111.588,195.350 111.538 C 195.678 111.452,195.678 111.445,195.344 111.423 C 195.148 111.410,194.937 111.531,194.876 111.690 M177.338 114.730 C 177.578 114.782,177.821 114.977,177.876 115.162 C 177.949 115.405,177.966 115.388,177.936 115.100 C 177.909 114.828,177.736 114.689,177.398 114.667 C 176.981 114.640,176.971 114.650,177.338 114.730 M178.038 116.124 C 178.223 116.179,178.421 116.377,178.476 116.562 C 178.549 116.807,178.566 116.791,178.536 116.502 C 178.512 116.269,178.331 116.088,178.098 116.064 C 177.809 116.034,177.793 116.051,178.038 116.124 M178.638 117.535 C 178.823 117.585,179.015 117.777,179.065 117.962 C 179.128 118.202,179.160 118.169,179.177 117.850 C 179.195 117.504,179.096 117.405,178.750 117.423 C 178.431 117.440,178.398 117.472,178.638 117.535 M179.000 119.200 C 179.000 119.467,179.133 119.600,179.400 119.600 C 179.667 119.600,179.800 119.467,179.800 119.200 C 179.800 118.933,179.667 118.800,179.400 118.800 C 179.133 118.800,179.000 118.933,179.000 119.200 M191.000 119.300 C 191.000 119.465,191.135 119.600,191.300 119.600 C 191.465 119.600,191.600 119.465,191.600 119.300 C 191.600 119.135,191.465 119.000,191.300 119.000 C 191.135 119.000,191.000 119.135,191.000 119.300 M179.748 120.621 C 179.802 120.830,179.978 121.000,180.138 121.000 C 180.535 121.000,180.385 120.350,179.974 120.290 C 179.744 120.257,179.678 120.354,179.748 120.621 M190.200 120.600 C 190.200 120.867,190.333 121.000,190.600 121.000 C 190.867 121.000,191.000 120.867,191.000 120.600 C 191.000 120.333,190.867 120.200,190.600 120.200 C 190.333 120.200,190.200 120.333,190.200 120.600 M189.533 121.533 C 189.460 121.607,189.401 121.764,189.403 121.883 C 189.405 122.030,189.454 122.027,189.553 121.873 C 189.634 121.748,189.880 121.601,190.100 121.546 C 190.487 121.450,190.486 121.446,190.083 121.423 C 189.854 121.410,189.607 121.460,189.533 121.533 M182.638 126.135 C 182.823 126.185,183.015 126.377,183.065 126.562 C 183.128 126.802,183.160 126.769,183.177 126.450 C 183.195 126.104,183.096 126.005,182.750 126.023 C 182.431 126.040,182.398 126.072,182.638 126.135 " stroke="none" fill="#84c4ec" fill-rule="evenodd"></path></g></svg>